%TF.GenerationSoftware,KiCad,Pcbnew,9.0.0*%
%TF.CreationDate,2025-09-04T17:25:07-04:00*%
%TF.ProjectId,OlfactoryDisplay,4f6c6661-6374-46f7-9279-446973706c61,rev?*%
%TF.SameCoordinates,Original*%
%TF.FileFunction,Legend,Bot*%
%TF.FilePolarity,Positive*%
%FSLAX46Y46*%
G04 Gerber Fmt 4.6, Leading zero omitted, Abs format (unit mm)*
G04 Created by KiCad (PCBNEW 9.0.0) date 2025-09-04 17:25:07*
%MOMM*%
%LPD*%
G01*
G04 APERTURE LIST*
%ADD10C,0.508000*%
%ADD11C,1.270000*%
%ADD12C,1.524000*%
%ADD13R,1.288000X1.288000*%
%ADD14C,1.288000*%
G04 APERTURE END LIST*
D10*
%TO.C,J3*%
X87939402Y-69901700D02*
G75*
G02*
X87177402Y-69901700I-381000J0D01*
G01*
X87177402Y-69901700D02*
G75*
G02*
X87939402Y-69901700I381000J0D01*
G01*
%TO.C,J2*%
X87939401Y-63401700D02*
G75*
G02*
X87177401Y-63401700I-381000J0D01*
G01*
X87177401Y-63401700D02*
G75*
G02*
X87939401Y-63401700I381000J0D01*
G01*
%TO.C,J9*%
X122089400Y-61500000D02*
G75*
G02*
X121327400Y-61500000I-381000J0D01*
G01*
X121327400Y-61500000D02*
G75*
G02*
X122089400Y-61500000I381000J0D01*
G01*
%TO.C,J6*%
X122089400Y-55500000D02*
G75*
G02*
X121327400Y-55500000I-381000J0D01*
G01*
X121327400Y-55500000D02*
G75*
G02*
X122089400Y-55500000I381000J0D01*
G01*
%TO.C,J4*%
X87939401Y-76401700D02*
G75*
G02*
X87177401Y-76401700I-381000J0D01*
G01*
X87177401Y-76401700D02*
G75*
G02*
X87939401Y-76401700I381000J0D01*
G01*
%TO.C,J1*%
X87939401Y-56901700D02*
G75*
G02*
X87177401Y-56901700I-381000J0D01*
G01*
X87177401Y-56901700D02*
G75*
G02*
X87939401Y-56901700I381000J0D01*
G01*
%TO.C,J7*%
X93672599Y-84000000D02*
G75*
G02*
X92910599Y-84000000I-381000J0D01*
G01*
X92910599Y-84000000D02*
G75*
G02*
X93672599Y-84000000I381000J0D01*
G01*
%TO.C,J5*%
X122089401Y-75499999D02*
G75*
G02*
X121327401Y-75499999I-381000J0D01*
G01*
X121327401Y-75499999D02*
G75*
G02*
X122089401Y-75499999I381000J0D01*
G01*
%TD*%
%LPC*%
D11*
%TO.C,J3*%
X84850002Y-69901700D03*
X82850001Y-69901700D03*
%TD*%
%TO.C,J2*%
X84850001Y-63401700D03*
X82850000Y-63401700D03*
%TD*%
D12*
%TO.C,U7*%
X96380000Y-60880000D03*
X96380000Y-63420000D03*
X96380000Y-65960000D03*
X96380000Y-68500000D03*
X96380000Y-71040000D03*
X96380000Y-73580000D03*
X96380000Y-76120000D03*
X111620000Y-76120000D03*
X111620000Y-73580000D03*
X111620000Y-71040000D03*
X111620000Y-68500000D03*
X111620000Y-65960000D03*
X111620000Y-63420000D03*
X111620000Y-60880000D03*
%TD*%
D11*
%TO.C,J9*%
X119000000Y-61500000D03*
X116999999Y-61500000D03*
%TD*%
D13*
%TO.C,PS1*%
X103760000Y-81500000D03*
D14*
X106300000Y-81500000D03*
X113920000Y-81500000D03*
X119000000Y-81500000D03*
%TD*%
D11*
%TO.C,J6*%
X119000000Y-55500000D03*
X116999999Y-55500000D03*
%TD*%
%TO.C,J4*%
X84850001Y-76401700D03*
X82850000Y-76401700D03*
%TD*%
%TO.C,J1*%
X84850001Y-56901700D03*
X82850000Y-56901700D03*
%TD*%
%TO.C,J7*%
X95999999Y-84000000D03*
X98000000Y-84000000D03*
%TD*%
%TO.C,J5*%
X119000001Y-75499999D03*
X117000000Y-75499999D03*
%TD*%
%LPD*%
M02*
