%TF.GenerationSoftware,KiCad,Pcbnew,9.0.0*%
%TF.CreationDate,2025-09-04T17:25:07-04:00*%
%TF.ProjectId,OlfactoryDisplay,4f6c6661-6374-46f7-9279-446973706c61,rev?*%
%TF.SameCoordinates,Original*%
%TF.FileFunction,Copper,L2,Bot*%
%TF.FilePolarity,Positive*%
%FSLAX46Y46*%
G04 Gerber Fmt 4.6, Leading zero omitted, Abs format (unit mm)*
G04 Created by KiCad (PCBNEW 9.0.0) date 2025-09-04 17:25:07*
%MOMM*%
%LPD*%
G01*
G04 APERTURE LIST*
%TA.AperFunction,ComponentPad*%
%ADD10C,1.270000*%
%TD*%
%TA.AperFunction,ComponentPad*%
%ADD11C,1.524000*%
%TD*%
%TA.AperFunction,ComponentPad*%
%ADD12R,1.288000X1.288000*%
%TD*%
%TA.AperFunction,ComponentPad*%
%ADD13C,1.288000*%
%TD*%
G04 APERTURE END LIST*
D10*
%TO.P,J3,1,1*%
%TO.N,Atomizer 3 Out*%
X84850002Y-69901700D03*
%TO.P,J3,2,2*%
%TO.N,GND*%
X82850001Y-69901700D03*
%TD*%
%TO.P,J2,1,1*%
%TO.N,Atomizer 2 Out*%
X84850001Y-63401700D03*
%TO.P,J2,2,2*%
%TO.N,GND*%
X82850000Y-63401700D03*
%TD*%
D11*
%TO.P,U7,1,PA02_A0_D0*%
%TO.N,unconnected-(U7-PA02_A0_D0-Pad1)*%
X96380000Y-60880000D03*
%TO.P,U7,2,PA4_A1_D1*%
%TO.N,Net-(U3-G)*%
X96380000Y-63420000D03*
%TO.P,U7,3,PA10_A2_D2*%
%TO.N,Net-(U4-G)*%
X96380000Y-65960000D03*
%TO.P,U7,4,PA11_A3_D3*%
%TO.N,Net-(U5-G)*%
X96380000Y-68500000D03*
%TO.P,U7,5,PA8_A4_D4_SDA*%
%TO.N,Net-(U6-G)*%
X96380000Y-71040000D03*
%TO.P,U7,6,PA9_A5_D5_SCL*%
%TO.N,unconnected-(U7-PA9_A5_D5_SCL-Pad6)*%
X96380000Y-73580000D03*
%TO.P,U7,7,PB08_A6_D6_TX*%
%TO.N,unconnected-(U7-PB08_A6_D6_TX-Pad7)*%
X96380000Y-76120000D03*
%TO.P,U7,8,PB09_A7_D7_RX*%
%TO.N,unconnected-(U7-PB09_A7_D7_RX-Pad8)*%
X111620000Y-76120000D03*
%TO.P,U7,9,PA7_A8_D8_SCK*%
%TO.N,unconnected-(U7-PA7_A8_D8_SCK-Pad9)*%
X111620000Y-73580000D03*
%TO.P,U7,10,PA5_A9_D9_MISO*%
%TO.N,Net-(U1-G)*%
X111620000Y-71040000D03*
%TO.P,U7,11,PA6_A10_D10_MOSI*%
%TO.N,Net-(U2-G)*%
X111620000Y-68500000D03*
%TO.P,U7,12,3V3*%
%TO.N,unconnected-(U7-3V3-Pad12)*%
X111620000Y-65960000D03*
%TO.P,U7,13,GND*%
%TO.N,GND*%
X111620000Y-63420000D03*
%TO.P,U7,14,5V*%
%TO.N,Battery 2 In*%
X111620000Y-60880000D03*
%TD*%
D10*
%TO.P,J9,1,1*%
%TO.N,5V Fan Out*%
X119000000Y-61500000D03*
%TO.P,J9,2,2*%
%TO.N,GND*%
X116999999Y-61500000D03*
%TD*%
D12*
%TO.P,PS1,1,+VIN*%
%TO.N,Battery 2 In*%
X103760000Y-81500000D03*
D13*
%TO.P,PS1,2,-VIN*%
%TO.N,GND*%
X106300000Y-81500000D03*
%TO.P,PS1,5,-VOUT*%
X113920000Y-81500000D03*
%TO.P,PS1,7,+VOUT*%
%TO.N,Converter Out*%
X119000000Y-81500000D03*
%TD*%
D10*
%TO.P,J6,1,1*%
%TO.N,Battery 2 In*%
X119000000Y-55500000D03*
%TO.P,J6,2,2*%
%TO.N,GND*%
X116999999Y-55500000D03*
%TD*%
%TO.P,J4,1,1*%
%TO.N,Atomizer 4 Out*%
X84850001Y-76401700D03*
%TO.P,J4,2,2*%
%TO.N,GND*%
X82850000Y-76401700D03*
%TD*%
%TO.P,J1,1,1*%
%TO.N,Atomizer 1 Out*%
X84850001Y-56901700D03*
%TO.P,J1,2,2*%
%TO.N,GND*%
X82850000Y-56901700D03*
%TD*%
%TO.P,J7,1,1*%
%TO.N,Battery 1 In*%
X95999999Y-84000000D03*
%TO.P,J7,2,2*%
%TO.N,GND*%
X98000000Y-84000000D03*
%TD*%
%TO.P,J5,1,1*%
%TO.N,12V Fan Out*%
X119000001Y-75499999D03*
%TO.P,J5,2,2*%
%TO.N,GND*%
X117000000Y-75499999D03*
%TD*%
%TA.AperFunction,Conductor*%
%TO.N,GND*%
G36*
X124942539Y-50020185D02*
G01*
X124988294Y-50072989D01*
X124999500Y-50124500D01*
X124999500Y-88375500D01*
X124979815Y-88442539D01*
X124927011Y-88488294D01*
X124875500Y-88499500D01*
X78124500Y-88499500D01*
X78057461Y-88479815D01*
X78011706Y-88427011D01*
X78000500Y-88375500D01*
X78000500Y-83910634D01*
X94864499Y-83910634D01*
X94864499Y-84089365D01*
X94892459Y-84265898D01*
X94892459Y-84265901D01*
X94947688Y-84435878D01*
X94947690Y-84435881D01*
X95028832Y-84595132D01*
X95133888Y-84739728D01*
X95260271Y-84866111D01*
X95404867Y-84971167D01*
X95564118Y-85052309D01*
X95564120Y-85052310D01*
X95722669Y-85103825D01*
X95734102Y-85107540D01*
X95910633Y-85135500D01*
X95910634Y-85135500D01*
X96089364Y-85135500D01*
X96089365Y-85135500D01*
X96265896Y-85107540D01*
X96265899Y-85107539D01*
X96265900Y-85107539D01*
X96435877Y-85052310D01*
X96435877Y-85052309D01*
X96435880Y-85052309D01*
X96595131Y-84971167D01*
X96739727Y-84866111D01*
X96866110Y-84739728D01*
X96928420Y-84653965D01*
X96931898Y-84649952D01*
X96956998Y-84633819D01*
X96980626Y-84615600D01*
X96986749Y-84614697D01*
X96990674Y-84612175D01*
X97003861Y-84612174D01*
X97035344Y-84607533D01*
X97038652Y-84607793D01*
X97619000Y-84027445D01*
X97619000Y-84050160D01*
X97644964Y-84147061D01*
X97695124Y-84233940D01*
X97766060Y-84304876D01*
X97852939Y-84355036D01*
X97949840Y-84381000D01*
X97972554Y-84381000D01*
X97392205Y-84961347D01*
X97392205Y-84961348D01*
X97405129Y-84970738D01*
X97564306Y-85051844D01*
X97734219Y-85107053D01*
X97910669Y-85135000D01*
X98089331Y-85135000D01*
X98265780Y-85107053D01*
X98435693Y-85051844D01*
X98594867Y-84970739D01*
X98594872Y-84970737D01*
X98607794Y-84961347D01*
X98027447Y-84381000D01*
X98050160Y-84381000D01*
X98147061Y-84355036D01*
X98233940Y-84304876D01*
X98304876Y-84233940D01*
X98355036Y-84147061D01*
X98381000Y-84050160D01*
X98381000Y-84027446D01*
X98961347Y-84607794D01*
X98970737Y-84594872D01*
X98970739Y-84594867D01*
X99051844Y-84435693D01*
X99107053Y-84265780D01*
X99135000Y-84089331D01*
X99135000Y-83910668D01*
X99107053Y-83734219D01*
X99051844Y-83564306D01*
X98970738Y-83405129D01*
X98961347Y-83392205D01*
X98381000Y-83972552D01*
X98381000Y-83949840D01*
X98355036Y-83852939D01*
X98304876Y-83766060D01*
X98233940Y-83695124D01*
X98147061Y-83644964D01*
X98050160Y-83619000D01*
X98027447Y-83619000D01*
X98607794Y-83038652D01*
X98607793Y-83038651D01*
X98594869Y-83029260D01*
X98435693Y-82948155D01*
X98265780Y-82892946D01*
X98089331Y-82865000D01*
X97910669Y-82865000D01*
X97734219Y-82892946D01*
X97564306Y-82948155D01*
X97405127Y-83029262D01*
X97392205Y-83038651D01*
X97392204Y-83038651D01*
X97972554Y-83619000D01*
X97949840Y-83619000D01*
X97852939Y-83644964D01*
X97766060Y-83695124D01*
X97695124Y-83766060D01*
X97644964Y-83852939D01*
X97619000Y-83949840D01*
X97619000Y-83972553D01*
X97038651Y-83392204D01*
X97035343Y-83392465D01*
X97030426Y-83391432D01*
X97025608Y-83392847D01*
X96996574Y-83384320D01*
X96966966Y-83378101D01*
X96962077Y-83374190D01*
X96958569Y-83373160D01*
X96946274Y-83361547D01*
X96931897Y-83350046D01*
X96928417Y-83346029D01*
X96866110Y-83260272D01*
X96739727Y-83133889D01*
X96595131Y-83028833D01*
X96435880Y-82947691D01*
X96435877Y-82947689D01*
X96265898Y-82892460D01*
X96148208Y-82873820D01*
X96089365Y-82864500D01*
X95910633Y-82864500D01*
X95851789Y-82873820D01*
X95734100Y-82892460D01*
X95734097Y-82892460D01*
X95564120Y-82947689D01*
X95564117Y-82947691D01*
X95404866Y-83028833D01*
X95260269Y-83133890D01*
X95133889Y-83260270D01*
X95028832Y-83404867D01*
X94947690Y-83564118D01*
X94947688Y-83564121D01*
X94892459Y-83734098D01*
X94892459Y-83734101D01*
X94864499Y-83910634D01*
X78000500Y-83910634D01*
X78000500Y-80808135D01*
X102615500Y-80808135D01*
X102615500Y-82191870D01*
X102615501Y-82191876D01*
X102621908Y-82251483D01*
X102672202Y-82386328D01*
X102672206Y-82386335D01*
X102758452Y-82501544D01*
X102758455Y-82501547D01*
X102873664Y-82587793D01*
X102873671Y-82587797D01*
X103008517Y-82638091D01*
X103008516Y-82638091D01*
X103015444Y-82638835D01*
X103068127Y-82644500D01*
X104451872Y-82644499D01*
X104511483Y-82638091D01*
X104646331Y-82587796D01*
X104761546Y-82501546D01*
X104847796Y-82386331D01*
X104898091Y-82251483D01*
X104904500Y-82191873D01*
X104904499Y-81409966D01*
X105156000Y-81409966D01*
X105156000Y-81590033D01*
X105184170Y-81767888D01*
X105184170Y-81767891D01*
X105239812Y-81939140D01*
X105239813Y-81939143D01*
X105321565Y-82099588D01*
X105332208Y-82114236D01*
X105332209Y-82114237D01*
X105910000Y-81536446D01*
X105910000Y-81551344D01*
X105936578Y-81650534D01*
X105987923Y-81739465D01*
X106060535Y-81812077D01*
X106149466Y-81863422D01*
X106248656Y-81890000D01*
X106263554Y-81890000D01*
X105685762Y-82467790D01*
X105685762Y-82467791D01*
X105700411Y-82478434D01*
X105860856Y-82560186D01*
X105860859Y-82560187D01*
X106032110Y-82615829D01*
X106209966Y-82644000D01*
X106390034Y-82644000D01*
X106567888Y-82615829D01*
X106567891Y-82615829D01*
X106739140Y-82560187D01*
X106739143Y-82560186D01*
X106899586Y-82478435D01*
X106914236Y-82467791D01*
X106914236Y-82467790D01*
X106336447Y-81890000D01*
X106351344Y-81890000D01*
X106450534Y-81863422D01*
X106539465Y-81812077D01*
X106612077Y-81739465D01*
X106663422Y-81650534D01*
X106690000Y-81551344D01*
X106690000Y-81536446D01*
X107267790Y-82114236D01*
X107267791Y-82114236D01*
X107278435Y-82099586D01*
X107360186Y-81939143D01*
X107360187Y-81939140D01*
X107415829Y-81767891D01*
X107415829Y-81767888D01*
X107444000Y-81590033D01*
X107444000Y-81409966D01*
X112776000Y-81409966D01*
X112776000Y-81590033D01*
X112804170Y-81767888D01*
X112804170Y-81767891D01*
X112859812Y-81939140D01*
X112859813Y-81939143D01*
X112941565Y-82099588D01*
X112952208Y-82114236D01*
X112952209Y-82114237D01*
X113530000Y-81536446D01*
X113530000Y-81551344D01*
X113556578Y-81650534D01*
X113607923Y-81739465D01*
X113680535Y-81812077D01*
X113769466Y-81863422D01*
X113868656Y-81890000D01*
X113883554Y-81890000D01*
X113305762Y-82467790D01*
X113305762Y-82467791D01*
X113320411Y-82478434D01*
X113480856Y-82560186D01*
X113480859Y-82560187D01*
X113652110Y-82615829D01*
X113829966Y-82644000D01*
X114010034Y-82644000D01*
X114187888Y-82615829D01*
X114187891Y-82615829D01*
X114359140Y-82560187D01*
X114359143Y-82560186D01*
X114519586Y-82478435D01*
X114534236Y-82467791D01*
X114534236Y-82467790D01*
X113956447Y-81890000D01*
X113971344Y-81890000D01*
X114070534Y-81863422D01*
X114159465Y-81812077D01*
X114232077Y-81739465D01*
X114283422Y-81650534D01*
X114310000Y-81551344D01*
X114310000Y-81536446D01*
X114887790Y-82114236D01*
X114887791Y-82114236D01*
X114898435Y-82099586D01*
X114980186Y-81939143D01*
X114980187Y-81939140D01*
X115035829Y-81767891D01*
X115035829Y-81767888D01*
X115064000Y-81590033D01*
X115064000Y-81409966D01*
X115063993Y-81409920D01*
X117855500Y-81409920D01*
X117855500Y-81590079D01*
X117883680Y-81768004D01*
X117914684Y-81863422D01*
X117939287Y-81939143D01*
X117939351Y-81939338D01*
X118021138Y-82099852D01*
X118127018Y-82245585D01*
X118127022Y-82245590D01*
X118254409Y-82372977D01*
X118254414Y-82372981D01*
X118381530Y-82465335D01*
X118400151Y-82478864D01*
X118560664Y-82560650D01*
X118690763Y-82602921D01*
X118731995Y-82616319D01*
X118909921Y-82644500D01*
X118909926Y-82644500D01*
X119090079Y-82644500D01*
X119268004Y-82616319D01*
X119269512Y-82615829D01*
X119439336Y-82560650D01*
X119599849Y-82478864D01*
X119745592Y-82372976D01*
X119872976Y-82245592D01*
X119978864Y-82099849D01*
X120060650Y-81939336D01*
X120116319Y-81768004D01*
X120120839Y-81739465D01*
X120144500Y-81590079D01*
X120144500Y-81409920D01*
X120116319Y-81231995D01*
X120088522Y-81146446D01*
X120060650Y-81060664D01*
X119978864Y-80900151D01*
X119912011Y-80808135D01*
X119872981Y-80754414D01*
X119872977Y-80754409D01*
X119745590Y-80627022D01*
X119745585Y-80627018D01*
X119599852Y-80521138D01*
X119599851Y-80521137D01*
X119599849Y-80521136D01*
X119439336Y-80439350D01*
X119394902Y-80424912D01*
X119268004Y-80383680D01*
X119090079Y-80355500D01*
X119090074Y-80355500D01*
X118909926Y-80355500D01*
X118909921Y-80355500D01*
X118731995Y-80383680D01*
X118560661Y-80439351D01*
X118400147Y-80521138D01*
X118254414Y-80627018D01*
X118254409Y-80627022D01*
X118127022Y-80754409D01*
X118127018Y-80754414D01*
X118021138Y-80900147D01*
X117939351Y-81060661D01*
X117883680Y-81231995D01*
X117855500Y-81409920D01*
X115063993Y-81409920D01*
X115035829Y-81232111D01*
X115035829Y-81232108D01*
X114980187Y-81060859D01*
X114980186Y-81060856D01*
X114898434Y-80900411D01*
X114887790Y-80885762D01*
X114310000Y-81463552D01*
X114310000Y-81448656D01*
X114283422Y-81349466D01*
X114232077Y-81260535D01*
X114159465Y-81187923D01*
X114070534Y-81136578D01*
X113971344Y-81110000D01*
X113956447Y-81110000D01*
X114534237Y-80532209D01*
X114534236Y-80532208D01*
X114519588Y-80521565D01*
X114359143Y-80439813D01*
X114359140Y-80439812D01*
X114187889Y-80384170D01*
X114010034Y-80356000D01*
X113829966Y-80356000D01*
X113652111Y-80384170D01*
X113652108Y-80384170D01*
X113480859Y-80439812D01*
X113480856Y-80439813D01*
X113320410Y-80521565D01*
X113320408Y-80521566D01*
X113305762Y-80532206D01*
X113305762Y-80532208D01*
X113883554Y-81110000D01*
X113868656Y-81110000D01*
X113769466Y-81136578D01*
X113680535Y-81187923D01*
X113607923Y-81260535D01*
X113556578Y-81349466D01*
X113530000Y-81448656D01*
X113530000Y-81463554D01*
X112952208Y-80885762D01*
X112952206Y-80885762D01*
X112941566Y-80900408D01*
X112941565Y-80900410D01*
X112859813Y-81060856D01*
X112859812Y-81060859D01*
X112804170Y-81232108D01*
X112804170Y-81232111D01*
X112776000Y-81409966D01*
X107444000Y-81409966D01*
X107415829Y-81232111D01*
X107415829Y-81232108D01*
X107360187Y-81060859D01*
X107360186Y-81060856D01*
X107278434Y-80900411D01*
X107267790Y-80885762D01*
X106690000Y-81463552D01*
X106690000Y-81448656D01*
X106663422Y-81349466D01*
X106612077Y-81260535D01*
X106539465Y-81187923D01*
X106450534Y-81136578D01*
X106351344Y-81110000D01*
X106336447Y-81110000D01*
X106914237Y-80532208D01*
X106899588Y-80521565D01*
X106739143Y-80439813D01*
X106739140Y-80439812D01*
X106567889Y-80384170D01*
X106390034Y-80356000D01*
X106209966Y-80356000D01*
X106032111Y-80384170D01*
X106032108Y-80384170D01*
X105860859Y-80439812D01*
X105860856Y-80439813D01*
X105700410Y-80521565D01*
X105700408Y-80521566D01*
X105685762Y-80532206D01*
X105685762Y-80532208D01*
X106263554Y-81110000D01*
X106248656Y-81110000D01*
X106149466Y-81136578D01*
X106060535Y-81187923D01*
X105987923Y-81260535D01*
X105936578Y-81349466D01*
X105910000Y-81448656D01*
X105910000Y-81463554D01*
X105332208Y-80885762D01*
X105332206Y-80885762D01*
X105321566Y-80900408D01*
X105321565Y-80900410D01*
X105239813Y-81060856D01*
X105239812Y-81060859D01*
X105184170Y-81232108D01*
X105184170Y-81232111D01*
X105156000Y-81409966D01*
X104904499Y-81409966D01*
X104904499Y-80808128D01*
X104898091Y-80748517D01*
X104898091Y-80748516D01*
X104851202Y-80622799D01*
X104851201Y-80622798D01*
X104847798Y-80613674D01*
X104847797Y-80613672D01*
X104847796Y-80613669D01*
X104847794Y-80613666D01*
X104847793Y-80613664D01*
X104761547Y-80498455D01*
X104761544Y-80498452D01*
X104646335Y-80412206D01*
X104646328Y-80412202D01*
X104511482Y-80361908D01*
X104511483Y-80361908D01*
X104451883Y-80355501D01*
X104451881Y-80355500D01*
X104451873Y-80355500D01*
X104451864Y-80355500D01*
X103068129Y-80355500D01*
X103068123Y-80355501D01*
X103008516Y-80361908D01*
X102873671Y-80412202D01*
X102873664Y-80412206D01*
X102758455Y-80498452D01*
X102758452Y-80498455D01*
X102672206Y-80613664D01*
X102672202Y-80613671D01*
X102621908Y-80748517D01*
X102615501Y-80808116D01*
X102615501Y-80808123D01*
X102615500Y-80808135D01*
X78000500Y-80808135D01*
X78000500Y-76312368D01*
X81715000Y-76312368D01*
X81715000Y-76491031D01*
X81742946Y-76667480D01*
X81798155Y-76837393D01*
X81879260Y-76996569D01*
X81888651Y-77009493D01*
X81888652Y-77009494D01*
X82469000Y-76429146D01*
X82469000Y-76451860D01*
X82494964Y-76548761D01*
X82545124Y-76635640D01*
X82616060Y-76706576D01*
X82702939Y-76756736D01*
X82799840Y-76782700D01*
X82822554Y-76782700D01*
X82242205Y-77363047D01*
X82242205Y-77363048D01*
X82255129Y-77372438D01*
X82414306Y-77453544D01*
X82584219Y-77508753D01*
X82760669Y-77536700D01*
X82939331Y-77536700D01*
X83115780Y-77508753D01*
X83285693Y-77453544D01*
X83444867Y-77372439D01*
X83444872Y-77372437D01*
X83457794Y-77363047D01*
X82877447Y-76782700D01*
X82900160Y-76782700D01*
X82997061Y-76756736D01*
X83083940Y-76706576D01*
X83154876Y-76635640D01*
X83205036Y-76548761D01*
X83231000Y-76451860D01*
X83231000Y-76429146D01*
X83811347Y-77009493D01*
X83814659Y-77009233D01*
X83883036Y-77023599D01*
X83924702Y-77059965D01*
X83941425Y-77082981D01*
X83983890Y-77141428D01*
X84110273Y-77267811D01*
X84254869Y-77372867D01*
X84414120Y-77454009D01*
X84414122Y-77454010D01*
X84572671Y-77505525D01*
X84584104Y-77509240D01*
X84760635Y-77537200D01*
X84760636Y-77537200D01*
X84939366Y-77537200D01*
X84939367Y-77537200D01*
X85115898Y-77509240D01*
X85115901Y-77509239D01*
X85115902Y-77509239D01*
X85285879Y-77454010D01*
X85285879Y-77454009D01*
X85285882Y-77454009D01*
X85445133Y-77372867D01*
X85589729Y-77267811D01*
X85716112Y-77141428D01*
X85821168Y-76996832D01*
X85902310Y-76837581D01*
X85957541Y-76667597D01*
X85985501Y-76491066D01*
X85985501Y-76312334D01*
X85957541Y-76135803D01*
X85957540Y-76135799D01*
X85957540Y-76135798D01*
X85902311Y-75965821D01*
X85902309Y-75965818D01*
X85887054Y-75935877D01*
X85821168Y-75806568D01*
X85716112Y-75661972D01*
X85589729Y-75535589D01*
X85445133Y-75430533D01*
X85285882Y-75349391D01*
X85285879Y-75349389D01*
X85115900Y-75294160D01*
X84998210Y-75275520D01*
X84939367Y-75266200D01*
X84760635Y-75266200D01*
X84701791Y-75275520D01*
X84584102Y-75294160D01*
X84584099Y-75294160D01*
X84414122Y-75349389D01*
X84414119Y-75349391D01*
X84254868Y-75430533D01*
X84110271Y-75535590D01*
X83983892Y-75661969D01*
X83983885Y-75661978D01*
X83924703Y-75743434D01*
X83869373Y-75786100D01*
X83814658Y-75794166D01*
X83811347Y-75793905D01*
X83231000Y-76374252D01*
X83231000Y-76351540D01*
X83205036Y-76254639D01*
X83154876Y-76167760D01*
X83083940Y-76096824D01*
X82997061Y-76046664D01*
X82900160Y-76020700D01*
X82877447Y-76020700D01*
X83457794Y-75440352D01*
X83457793Y-75440351D01*
X83444869Y-75430960D01*
X83285693Y-75349855D01*
X83115780Y-75294646D01*
X82939331Y-75266700D01*
X82760669Y-75266700D01*
X82584219Y-75294646D01*
X82414306Y-75349855D01*
X82255127Y-75430962D01*
X82242205Y-75440351D01*
X82242204Y-75440351D01*
X82822554Y-76020700D01*
X82799840Y-76020700D01*
X82702939Y-76046664D01*
X82616060Y-76096824D01*
X82545124Y-76167760D01*
X82494964Y-76254639D01*
X82469000Y-76351540D01*
X82469000Y-76374253D01*
X81888651Y-75793904D01*
X81888651Y-75793905D01*
X81879262Y-75806827D01*
X81798155Y-75966006D01*
X81742946Y-76135919D01*
X81715000Y-76312368D01*
X78000500Y-76312368D01*
X78000500Y-69812368D01*
X81715001Y-69812368D01*
X81715001Y-69991031D01*
X81742947Y-70167480D01*
X81798156Y-70337393D01*
X81879261Y-70496569D01*
X81888652Y-70509493D01*
X81888653Y-70509494D01*
X82469001Y-69929146D01*
X82469001Y-69951860D01*
X82494965Y-70048761D01*
X82545125Y-70135640D01*
X82616061Y-70206576D01*
X82702940Y-70256736D01*
X82799841Y-70282700D01*
X82822555Y-70282700D01*
X82242206Y-70863047D01*
X82242206Y-70863048D01*
X82255130Y-70872438D01*
X82414307Y-70953544D01*
X82584220Y-71008753D01*
X82760670Y-71036700D01*
X82939332Y-71036700D01*
X83115781Y-71008753D01*
X83285694Y-70953544D01*
X83444868Y-70872439D01*
X83444873Y-70872437D01*
X83457795Y-70863047D01*
X82877448Y-70282700D01*
X82900161Y-70282700D01*
X82997062Y-70256736D01*
X83083941Y-70206576D01*
X83154877Y-70135640D01*
X83205037Y-70048761D01*
X83231001Y-69951860D01*
X83231001Y-69929146D01*
X83811348Y-70509493D01*
X83814660Y-70509233D01*
X83883037Y-70523599D01*
X83924703Y-70559965D01*
X83979883Y-70635912D01*
X83983891Y-70641428D01*
X84110274Y-70767811D01*
X84254870Y-70872867D01*
X84414121Y-70954009D01*
X84414123Y-70954010D01*
X84572672Y-71005525D01*
X84584105Y-71009240D01*
X84760636Y-71037200D01*
X84760637Y-71037200D01*
X84939367Y-71037200D01*
X84939368Y-71037200D01*
X85115899Y-71009240D01*
X85115902Y-71009239D01*
X85115903Y-71009239D01*
X85285880Y-70954010D01*
X85285880Y-70954009D01*
X85285883Y-70954009D01*
X85445134Y-70872867D01*
X85589730Y-70767811D01*
X85716113Y-70641428D01*
X85821169Y-70496832D01*
X85902311Y-70337581D01*
X85957542Y-70167597D01*
X85985502Y-69991066D01*
X85985502Y-69812334D01*
X85957542Y-69635803D01*
X85957541Y-69635799D01*
X85957541Y-69635798D01*
X85902312Y-69465821D01*
X85902310Y-69465818D01*
X85900865Y-69462981D01*
X85821169Y-69306568D01*
X85716113Y-69161972D01*
X85589730Y-69035589D01*
X85445134Y-68930533D01*
X85285883Y-68849391D01*
X85285880Y-68849389D01*
X85115901Y-68794160D01*
X84998211Y-68775520D01*
X84939368Y-68766200D01*
X84760636Y-68766200D01*
X84701792Y-68775520D01*
X84584103Y-68794160D01*
X84584100Y-68794160D01*
X84414123Y-68849389D01*
X84414120Y-68849391D01*
X84254869Y-68930533D01*
X84110272Y-69035590D01*
X83983893Y-69161969D01*
X83983886Y-69161978D01*
X83924704Y-69243434D01*
X83869374Y-69286100D01*
X83814659Y-69294166D01*
X83811348Y-69293905D01*
X83231001Y-69874252D01*
X83231001Y-69851540D01*
X83205037Y-69754639D01*
X83154877Y-69667760D01*
X83083941Y-69596824D01*
X82997062Y-69546664D01*
X82900161Y-69520700D01*
X82877448Y-69520700D01*
X83457795Y-68940352D01*
X83457794Y-68940351D01*
X83444870Y-68930960D01*
X83285694Y-68849855D01*
X83115781Y-68794646D01*
X82939332Y-68766700D01*
X82760670Y-68766700D01*
X82584220Y-68794646D01*
X82414307Y-68849855D01*
X82255128Y-68930962D01*
X82242206Y-68940351D01*
X82242205Y-68940351D01*
X82822555Y-69520700D01*
X82799841Y-69520700D01*
X82702940Y-69546664D01*
X82616061Y-69596824D01*
X82545125Y-69667760D01*
X82494965Y-69754639D01*
X82469001Y-69851540D01*
X82469001Y-69874253D01*
X81888652Y-69293904D01*
X81888652Y-69293905D01*
X81879263Y-69306827D01*
X81798156Y-69466006D01*
X81742947Y-69635919D01*
X81715001Y-69812368D01*
X78000500Y-69812368D01*
X78000500Y-63312368D01*
X81715000Y-63312368D01*
X81715000Y-63491031D01*
X81742946Y-63667480D01*
X81798155Y-63837393D01*
X81879260Y-63996569D01*
X81888651Y-64009493D01*
X81888652Y-64009494D01*
X82469000Y-63429146D01*
X82469000Y-63451860D01*
X82494964Y-63548761D01*
X82545124Y-63635640D01*
X82616060Y-63706576D01*
X82702939Y-63756736D01*
X82799840Y-63782700D01*
X82822554Y-63782700D01*
X82242205Y-64363047D01*
X82242205Y-64363048D01*
X82255129Y-64372438D01*
X82414306Y-64453544D01*
X82584219Y-64508753D01*
X82760669Y-64536700D01*
X82939331Y-64536700D01*
X83115780Y-64508753D01*
X83285693Y-64453544D01*
X83444867Y-64372439D01*
X83444872Y-64372437D01*
X83457794Y-64363047D01*
X82877447Y-63782700D01*
X82900160Y-63782700D01*
X82997061Y-63756736D01*
X83083940Y-63706576D01*
X83154876Y-63635640D01*
X83205036Y-63548761D01*
X83231000Y-63451860D01*
X83231000Y-63429146D01*
X83811347Y-64009493D01*
X83814659Y-64009233D01*
X83883036Y-64023599D01*
X83924702Y-64059965D01*
X83979882Y-64135912D01*
X83983890Y-64141428D01*
X84110273Y-64267811D01*
X84254869Y-64372867D01*
X84414120Y-64454009D01*
X84414122Y-64454010D01*
X84572671Y-64505525D01*
X84584104Y-64509240D01*
X84760635Y-64537200D01*
X84760636Y-64537200D01*
X84939366Y-64537200D01*
X84939367Y-64537200D01*
X85115898Y-64509240D01*
X85115901Y-64509239D01*
X85115902Y-64509239D01*
X85285879Y-64454010D01*
X85285879Y-64454009D01*
X85285882Y-64454009D01*
X85445133Y-64372867D01*
X85589729Y-64267811D01*
X85716112Y-64141428D01*
X85821168Y-63996832D01*
X85902310Y-63837581D01*
X85957541Y-63667597D01*
X85985501Y-63491066D01*
X85985501Y-63312334D01*
X85957541Y-63135803D01*
X85957540Y-63135799D01*
X85957540Y-63135798D01*
X85902311Y-62965821D01*
X85902309Y-62965818D01*
X85886796Y-62935370D01*
X85821168Y-62806568D01*
X85716112Y-62661972D01*
X85589729Y-62535589D01*
X85445133Y-62430533D01*
X85285882Y-62349391D01*
X85285879Y-62349389D01*
X85115900Y-62294160D01*
X84998210Y-62275520D01*
X84939367Y-62266200D01*
X84760635Y-62266200D01*
X84701791Y-62275520D01*
X84584102Y-62294160D01*
X84584099Y-62294160D01*
X84414122Y-62349389D01*
X84414119Y-62349391D01*
X84254868Y-62430533D01*
X84110271Y-62535590D01*
X83983892Y-62661969D01*
X83983885Y-62661978D01*
X83924703Y-62743434D01*
X83869373Y-62786100D01*
X83814658Y-62794166D01*
X83811347Y-62793905D01*
X83231000Y-63374252D01*
X83231000Y-63351540D01*
X83205036Y-63254639D01*
X83154876Y-63167760D01*
X83083940Y-63096824D01*
X82997061Y-63046664D01*
X82900160Y-63020700D01*
X82877447Y-63020700D01*
X83457794Y-62440352D01*
X83457793Y-62440351D01*
X83444869Y-62430960D01*
X83285693Y-62349855D01*
X83115780Y-62294646D01*
X82939331Y-62266700D01*
X82760669Y-62266700D01*
X82584219Y-62294646D01*
X82414306Y-62349855D01*
X82255127Y-62430962D01*
X82242205Y-62440351D01*
X82242204Y-62440351D01*
X82822554Y-63020700D01*
X82799840Y-63020700D01*
X82702939Y-63046664D01*
X82616060Y-63096824D01*
X82545124Y-63167760D01*
X82494964Y-63254639D01*
X82469000Y-63351540D01*
X82469000Y-63374253D01*
X81888651Y-62793904D01*
X81888651Y-62793905D01*
X81879262Y-62806827D01*
X81798155Y-62966006D01*
X81742946Y-63135919D01*
X81715000Y-63312368D01*
X78000500Y-63312368D01*
X78000500Y-60780639D01*
X95117500Y-60780639D01*
X95117500Y-60979360D01*
X95148587Y-61175637D01*
X95209993Y-61364629D01*
X95209994Y-61364632D01*
X95278968Y-61499999D01*
X95300213Y-61541694D01*
X95417019Y-61702464D01*
X95557536Y-61842981D01*
X95718306Y-61959787D01*
X95836832Y-62020179D01*
X95874780Y-62039515D01*
X95925576Y-62087490D01*
X95942371Y-62155311D01*
X95919833Y-62221446D01*
X95874780Y-62260485D01*
X95718305Y-62340213D01*
X95557533Y-62457021D01*
X95417021Y-62597533D01*
X95300213Y-62758305D01*
X95209994Y-62935367D01*
X95209993Y-62935370D01*
X95148587Y-63124362D01*
X95117500Y-63320639D01*
X95117500Y-63519360D01*
X95148587Y-63715637D01*
X95209993Y-63904629D01*
X95209994Y-63904632D01*
X95263425Y-64009494D01*
X95300213Y-64081694D01*
X95417019Y-64242464D01*
X95557536Y-64382981D01*
X95718306Y-64499787D01*
X95790752Y-64536700D01*
X95874780Y-64579515D01*
X95925576Y-64627490D01*
X95942371Y-64695311D01*
X95919833Y-64761446D01*
X95874780Y-64800485D01*
X95718305Y-64880213D01*
X95557533Y-64997021D01*
X95417021Y-65137533D01*
X95300213Y-65298305D01*
X95209994Y-65475367D01*
X95209993Y-65475370D01*
X95148587Y-65664362D01*
X95117500Y-65860639D01*
X95117500Y-66059360D01*
X95148587Y-66255637D01*
X95209993Y-66444629D01*
X95209994Y-66444632D01*
X95300213Y-66621694D01*
X95417019Y-66782464D01*
X95557536Y-66922981D01*
X95718306Y-67039787D01*
X95836832Y-67100179D01*
X95874780Y-67119515D01*
X95925576Y-67167490D01*
X95942371Y-67235311D01*
X95919833Y-67301446D01*
X95874780Y-67340485D01*
X95718305Y-67420213D01*
X95557533Y-67537021D01*
X95417021Y-67677533D01*
X95300213Y-67838305D01*
X95209994Y-68015367D01*
X95209993Y-68015370D01*
X95148587Y-68204362D01*
X95117500Y-68400639D01*
X95117500Y-68599360D01*
X95148587Y-68795637D01*
X95209993Y-68984629D01*
X95209994Y-68984632D01*
X95300213Y-69161694D01*
X95417019Y-69322464D01*
X95557536Y-69462981D01*
X95718306Y-69579787D01*
X95828233Y-69635798D01*
X95874780Y-69659515D01*
X95925576Y-69707490D01*
X95942371Y-69775311D01*
X95919833Y-69841446D01*
X95874780Y-69880485D01*
X95718305Y-69960213D01*
X95557533Y-70077021D01*
X95417021Y-70217533D01*
X95300213Y-70378305D01*
X95209994Y-70555367D01*
X95209993Y-70555370D01*
X95148587Y-70744362D01*
X95117500Y-70940639D01*
X95117500Y-71139360D01*
X95148587Y-71335637D01*
X95209993Y-71524629D01*
X95209994Y-71524632D01*
X95300213Y-71701694D01*
X95417019Y-71862464D01*
X95557536Y-72002981D01*
X95718306Y-72119787D01*
X95836832Y-72180179D01*
X95874780Y-72199515D01*
X95925576Y-72247490D01*
X95942371Y-72315311D01*
X95919833Y-72381446D01*
X95874780Y-72420485D01*
X95718305Y-72500213D01*
X95557533Y-72617021D01*
X95417021Y-72757533D01*
X95300213Y-72918305D01*
X95209994Y-73095367D01*
X95209993Y-73095370D01*
X95148587Y-73284362D01*
X95117500Y-73480639D01*
X95117500Y-73679360D01*
X95148587Y-73875637D01*
X95209993Y-74064629D01*
X95209994Y-74064632D01*
X95300213Y-74241694D01*
X95417019Y-74402464D01*
X95557536Y-74542981D01*
X95718306Y-74659787D01*
X95836832Y-74720179D01*
X95874780Y-74739515D01*
X95925576Y-74787490D01*
X95942371Y-74855311D01*
X95919833Y-74921446D01*
X95874780Y-74960485D01*
X95718305Y-75040213D01*
X95557533Y-75157021D01*
X95417021Y-75297533D01*
X95300213Y-75458305D01*
X95209994Y-75635367D01*
X95209993Y-75635370D01*
X95148587Y-75824362D01*
X95117500Y-76020639D01*
X95117500Y-76219360D01*
X95148587Y-76415637D01*
X95209993Y-76604629D01*
X95209994Y-76604632D01*
X95242079Y-76667601D01*
X95300213Y-76781694D01*
X95417019Y-76942464D01*
X95557536Y-77082981D01*
X95718306Y-77199787D01*
X95805149Y-77244035D01*
X95895367Y-77290005D01*
X95895370Y-77290006D01*
X95989866Y-77320709D01*
X96084364Y-77351413D01*
X96280639Y-77382500D01*
X96280640Y-77382500D01*
X96479360Y-77382500D01*
X96479361Y-77382500D01*
X96675636Y-77351413D01*
X96864632Y-77290005D01*
X97041694Y-77199787D01*
X97202464Y-77082981D01*
X97342981Y-76942464D01*
X97459787Y-76781694D01*
X97550005Y-76604632D01*
X97611413Y-76415636D01*
X97642500Y-76219361D01*
X97642500Y-76020639D01*
X97611413Y-75824364D01*
X97558649Y-75661972D01*
X97550006Y-75635370D01*
X97550005Y-75635367D01*
X97499165Y-75535589D01*
X97459787Y-75458306D01*
X97342981Y-75297536D01*
X97202464Y-75157019D01*
X97041694Y-75040213D01*
X96885218Y-74960484D01*
X96834423Y-74912510D01*
X96817628Y-74844689D01*
X96840165Y-74778554D01*
X96885218Y-74739515D01*
X97041694Y-74659787D01*
X97202464Y-74542981D01*
X97342981Y-74402464D01*
X97459787Y-74241694D01*
X97550005Y-74064632D01*
X97611413Y-73875636D01*
X97642500Y-73679361D01*
X97642500Y-73480639D01*
X97611413Y-73284364D01*
X97550005Y-73095368D01*
X97550005Y-73095367D01*
X97459786Y-72918305D01*
X97342981Y-72757536D01*
X97202464Y-72617019D01*
X97041694Y-72500213D01*
X96885218Y-72420484D01*
X96834423Y-72372510D01*
X96817628Y-72304689D01*
X96840165Y-72238554D01*
X96885218Y-72199515D01*
X97041694Y-72119787D01*
X97202464Y-72002981D01*
X97342981Y-71862464D01*
X97459787Y-71701694D01*
X97550005Y-71524632D01*
X97611413Y-71335636D01*
X97642500Y-71139361D01*
X97642500Y-70940639D01*
X97611413Y-70744364D01*
X97550005Y-70555368D01*
X97550005Y-70555367D01*
X97459786Y-70378305D01*
X97342981Y-70217536D01*
X97202464Y-70077019D01*
X97041694Y-69960213D01*
X96885218Y-69880484D01*
X96834423Y-69832510D01*
X96817628Y-69764689D01*
X96840165Y-69698554D01*
X96885218Y-69659515D01*
X97041694Y-69579787D01*
X97202464Y-69462981D01*
X97342981Y-69322464D01*
X97459787Y-69161694D01*
X97550005Y-68984632D01*
X97611413Y-68795636D01*
X97642500Y-68599361D01*
X97642500Y-68400639D01*
X97611413Y-68204364D01*
X97550005Y-68015368D01*
X97550005Y-68015367D01*
X97459786Y-67838305D01*
X97342981Y-67677536D01*
X97202464Y-67537019D01*
X97041694Y-67420213D01*
X96885218Y-67340484D01*
X96834423Y-67292510D01*
X96817628Y-67224689D01*
X96840165Y-67158554D01*
X96885218Y-67119515D01*
X97041694Y-67039787D01*
X97202464Y-66922981D01*
X97342981Y-66782464D01*
X97459787Y-66621694D01*
X97550005Y-66444632D01*
X97611413Y-66255636D01*
X97642500Y-66059361D01*
X97642500Y-65860639D01*
X97611413Y-65664364D01*
X97550005Y-65475368D01*
X97550005Y-65475367D01*
X97459786Y-65298305D01*
X97342981Y-65137536D01*
X97202464Y-64997019D01*
X97041694Y-64880213D01*
X96885218Y-64800484D01*
X96834423Y-64752510D01*
X96817628Y-64684689D01*
X96840165Y-64618554D01*
X96885218Y-64579515D01*
X97041694Y-64499787D01*
X97202464Y-64382981D01*
X97342981Y-64242464D01*
X97459787Y-64081694D01*
X97550005Y-63904632D01*
X97611413Y-63715636D01*
X97642500Y-63519361D01*
X97642500Y-63320639D01*
X97611413Y-63124364D01*
X97550005Y-62935368D01*
X97550005Y-62935367D01*
X97484377Y-62806567D01*
X97459787Y-62758306D01*
X97342981Y-62597536D01*
X97202464Y-62457019D01*
X97041694Y-62340213D01*
X96885218Y-62260484D01*
X96834423Y-62212510D01*
X96817628Y-62144689D01*
X96840165Y-62078554D01*
X96885218Y-62039515D01*
X97041694Y-61959787D01*
X97202464Y-61842981D01*
X97342981Y-61702464D01*
X97459787Y-61541694D01*
X97550005Y-61364632D01*
X97611413Y-61175636D01*
X97642500Y-60979361D01*
X97642500Y-60780639D01*
X110357500Y-60780639D01*
X110357500Y-60979360D01*
X110388587Y-61175637D01*
X110449993Y-61364629D01*
X110449994Y-61364632D01*
X110518968Y-61499999D01*
X110540213Y-61541694D01*
X110657019Y-61702464D01*
X110797536Y-61842981D01*
X110958306Y-61959787D01*
X111115332Y-62039796D01*
X111166127Y-62087769D01*
X111182922Y-62155590D01*
X111160385Y-62221725D01*
X111115332Y-62260764D01*
X110958566Y-62340641D01*
X110921283Y-62367729D01*
X110921282Y-62367730D01*
X111535906Y-62982352D01*
X111448429Y-63005792D01*
X111347070Y-63064311D01*
X111264311Y-63147070D01*
X111205792Y-63248429D01*
X111182352Y-63335905D01*
X110567730Y-62721282D01*
X110567729Y-62721283D01*
X110540643Y-62758564D01*
X110450457Y-62935562D01*
X110389075Y-63124476D01*
X110389075Y-63124479D01*
X110358000Y-63320678D01*
X110358000Y-63519321D01*
X110389075Y-63715520D01*
X110389075Y-63715523D01*
X110450457Y-63904437D01*
X110540641Y-64081432D01*
X110567730Y-64118715D01*
X110567731Y-64118716D01*
X111182352Y-63504094D01*
X111205792Y-63591571D01*
X111264311Y-63692930D01*
X111347070Y-63775689D01*
X111448429Y-63834208D01*
X111535905Y-63857647D01*
X110921283Y-64472268D01*
X110921283Y-64472269D01*
X110958567Y-64499358D01*
X111115331Y-64579234D01*
X111166127Y-64627209D01*
X111182922Y-64695030D01*
X111160384Y-64761165D01*
X111115331Y-64800204D01*
X110958305Y-64880213D01*
X110797533Y-64997021D01*
X110657021Y-65137533D01*
X110540213Y-65298305D01*
X110449994Y-65475367D01*
X110449993Y-65475370D01*
X110388587Y-65664362D01*
X110357500Y-65860639D01*
X110357500Y-66059360D01*
X110388587Y-66255637D01*
X110449993Y-66444629D01*
X110449994Y-66444632D01*
X110540213Y-66621694D01*
X110657019Y-66782464D01*
X110797536Y-66922981D01*
X110958306Y-67039787D01*
X111076832Y-67100179D01*
X111114780Y-67119515D01*
X111165576Y-67167490D01*
X111182371Y-67235311D01*
X111159833Y-67301446D01*
X111114780Y-67340485D01*
X110958305Y-67420213D01*
X110797533Y-67537021D01*
X110657021Y-67677533D01*
X110540213Y-67838305D01*
X110449994Y-68015367D01*
X110449993Y-68015370D01*
X110388587Y-68204362D01*
X110357500Y-68400639D01*
X110357500Y-68599360D01*
X110388587Y-68795637D01*
X110449993Y-68984629D01*
X110449994Y-68984632D01*
X110540213Y-69161694D01*
X110657019Y-69322464D01*
X110797536Y-69462981D01*
X110958306Y-69579787D01*
X111068233Y-69635798D01*
X111114780Y-69659515D01*
X111165576Y-69707490D01*
X111182371Y-69775311D01*
X111159833Y-69841446D01*
X111114780Y-69880485D01*
X110958305Y-69960213D01*
X110797533Y-70077021D01*
X110657021Y-70217533D01*
X110540213Y-70378305D01*
X110449994Y-70555367D01*
X110449993Y-70555370D01*
X110388587Y-70744362D01*
X110357500Y-70940639D01*
X110357500Y-71139360D01*
X110388587Y-71335637D01*
X110449993Y-71524629D01*
X110449994Y-71524632D01*
X110540213Y-71701694D01*
X110657019Y-71862464D01*
X110797536Y-72002981D01*
X110958306Y-72119787D01*
X111076832Y-72180179D01*
X111114780Y-72199515D01*
X111165576Y-72247490D01*
X111182371Y-72315311D01*
X111159833Y-72381446D01*
X111114780Y-72420485D01*
X110958305Y-72500213D01*
X110797533Y-72617021D01*
X110657021Y-72757533D01*
X110540213Y-72918305D01*
X110449994Y-73095367D01*
X110449993Y-73095370D01*
X110388587Y-73284362D01*
X110357500Y-73480639D01*
X110357500Y-73679360D01*
X110388587Y-73875637D01*
X110449993Y-74064629D01*
X110449994Y-74064632D01*
X110540213Y-74241694D01*
X110657019Y-74402464D01*
X110797536Y-74542981D01*
X110958306Y-74659787D01*
X111076832Y-74720179D01*
X111114780Y-74739515D01*
X111165576Y-74787490D01*
X111182371Y-74855311D01*
X111159833Y-74921446D01*
X111114780Y-74960485D01*
X110958305Y-75040213D01*
X110797533Y-75157021D01*
X110657021Y-75297533D01*
X110540213Y-75458305D01*
X110449994Y-75635367D01*
X110449993Y-75635370D01*
X110388587Y-75824362D01*
X110357500Y-76020639D01*
X110357500Y-76219360D01*
X110388587Y-76415637D01*
X110449993Y-76604629D01*
X110449994Y-76604632D01*
X110482079Y-76667601D01*
X110540213Y-76781694D01*
X110657019Y-76942464D01*
X110797536Y-77082981D01*
X110958306Y-77199787D01*
X111045149Y-77244035D01*
X111135367Y-77290005D01*
X111135370Y-77290006D01*
X111229866Y-77320709D01*
X111324364Y-77351413D01*
X111520639Y-77382500D01*
X111520640Y-77382500D01*
X111719360Y-77382500D01*
X111719361Y-77382500D01*
X111915636Y-77351413D01*
X112104632Y-77290005D01*
X112281694Y-77199787D01*
X112442464Y-77082981D01*
X112582981Y-76942464D01*
X112699787Y-76781694D01*
X112790005Y-76604632D01*
X112851413Y-76415636D01*
X112882500Y-76219361D01*
X112882500Y-76020639D01*
X112851413Y-75824364D01*
X112798649Y-75661972D01*
X112790006Y-75635370D01*
X112790005Y-75635367D01*
X112701718Y-75462096D01*
X112699786Y-75458305D01*
X112693635Y-75449839D01*
X112665175Y-75410667D01*
X115865000Y-75410667D01*
X115865000Y-75589330D01*
X115892946Y-75765779D01*
X115948155Y-75935692D01*
X116029260Y-76094868D01*
X116038651Y-76107792D01*
X116038652Y-76107793D01*
X116619000Y-75527445D01*
X116619000Y-75550159D01*
X116644964Y-75647060D01*
X116695124Y-75733939D01*
X116766060Y-75804875D01*
X116852939Y-75855035D01*
X116949840Y-75880999D01*
X116972554Y-75880999D01*
X116392205Y-76461346D01*
X116392205Y-76461347D01*
X116405129Y-76470737D01*
X116564306Y-76551843D01*
X116734219Y-76607052D01*
X116910669Y-76634999D01*
X117089331Y-76634999D01*
X117265780Y-76607052D01*
X117435693Y-76551843D01*
X117594867Y-76470738D01*
X117594872Y-76470736D01*
X117607794Y-76461346D01*
X117027447Y-75880999D01*
X117050160Y-75880999D01*
X117147061Y-75855035D01*
X117233940Y-75804875D01*
X117304876Y-75733939D01*
X117355036Y-75647060D01*
X117381000Y-75550159D01*
X117381000Y-75527445D01*
X117961347Y-76107792D01*
X117964659Y-76107532D01*
X118033036Y-76121898D01*
X118074702Y-76158264D01*
X118119092Y-76219360D01*
X118133890Y-76239727D01*
X118260273Y-76366110D01*
X118404869Y-76471166D01*
X118564120Y-76552308D01*
X118564122Y-76552309D01*
X118722671Y-76603824D01*
X118734104Y-76607539D01*
X118910635Y-76635499D01*
X118910636Y-76635499D01*
X119089366Y-76635499D01*
X119089367Y-76635499D01*
X119265898Y-76607539D01*
X119265901Y-76607538D01*
X119265902Y-76607538D01*
X119435879Y-76552309D01*
X119435879Y-76552308D01*
X119435882Y-76552308D01*
X119595133Y-76471166D01*
X119739729Y-76366110D01*
X119866112Y-76239727D01*
X119971168Y-76095131D01*
X120052310Y-75935880D01*
X120088544Y-75824364D01*
X120107540Y-75765900D01*
X120107540Y-75765899D01*
X120107541Y-75765896D01*
X120135501Y-75589365D01*
X120135501Y-75410633D01*
X120107541Y-75234102D01*
X120107540Y-75234098D01*
X120107540Y-75234097D01*
X120052311Y-75064120D01*
X120052309Y-75064117D01*
X120040130Y-75040213D01*
X119971168Y-74904867D01*
X119866112Y-74760271D01*
X119739729Y-74633888D01*
X119595133Y-74528832D01*
X119435882Y-74447690D01*
X119435879Y-74447688D01*
X119265900Y-74392459D01*
X119148210Y-74373819D01*
X119089367Y-74364499D01*
X118910635Y-74364499D01*
X118851791Y-74373819D01*
X118734102Y-74392459D01*
X118734099Y-74392459D01*
X118564122Y-74447688D01*
X118564119Y-74447690D01*
X118404868Y-74528832D01*
X118260271Y-74633889D01*
X118133892Y-74760268D01*
X118133885Y-74760277D01*
X118074703Y-74841733D01*
X118019373Y-74884399D01*
X117964658Y-74892465D01*
X117961347Y-74892204D01*
X117381000Y-75472551D01*
X117381000Y-75449839D01*
X117355036Y-75352938D01*
X117304876Y-75266059D01*
X117233940Y-75195123D01*
X117147061Y-75144963D01*
X117050160Y-75118999D01*
X117027447Y-75118999D01*
X117607794Y-74538651D01*
X117607793Y-74538650D01*
X117594869Y-74529259D01*
X117435693Y-74448154D01*
X117265780Y-74392945D01*
X117089331Y-74364999D01*
X116910669Y-74364999D01*
X116734219Y-74392945D01*
X116564306Y-74448154D01*
X116405127Y-74529261D01*
X116392205Y-74538650D01*
X116392204Y-74538650D01*
X116972554Y-75118999D01*
X116949840Y-75118999D01*
X116852939Y-75144963D01*
X116766060Y-75195123D01*
X116695124Y-75266059D01*
X116644964Y-75352938D01*
X116619000Y-75449839D01*
X116619000Y-75472552D01*
X116038651Y-74892203D01*
X116038651Y-74892204D01*
X116029262Y-74905126D01*
X115948155Y-75064305D01*
X115892946Y-75234218D01*
X115865000Y-75410667D01*
X112665175Y-75410667D01*
X112582981Y-75297536D01*
X112442464Y-75157019D01*
X112281694Y-75040213D01*
X112125218Y-74960484D01*
X112074423Y-74912510D01*
X112057628Y-74844689D01*
X112080165Y-74778554D01*
X112125218Y-74739515D01*
X112281694Y-74659787D01*
X112442464Y-74542981D01*
X112582981Y-74402464D01*
X112699787Y-74241694D01*
X112790005Y-74064632D01*
X112851413Y-73875636D01*
X112882500Y-73679361D01*
X112882500Y-73480639D01*
X112851413Y-73284364D01*
X112790005Y-73095368D01*
X112790005Y-73095367D01*
X112699786Y-72918305D01*
X112582981Y-72757536D01*
X112442464Y-72617019D01*
X112281694Y-72500213D01*
X112125218Y-72420484D01*
X112074423Y-72372510D01*
X112057628Y-72304689D01*
X112080165Y-72238554D01*
X112125218Y-72199515D01*
X112281694Y-72119787D01*
X112442464Y-72002981D01*
X112582981Y-71862464D01*
X112699787Y-71701694D01*
X112790005Y-71524632D01*
X112851413Y-71335636D01*
X112882500Y-71139361D01*
X112882500Y-70940639D01*
X112851413Y-70744364D01*
X112790005Y-70555368D01*
X112790005Y-70555367D01*
X112699786Y-70378305D01*
X112582981Y-70217536D01*
X112442464Y-70077019D01*
X112281694Y-69960213D01*
X112125218Y-69880484D01*
X112074423Y-69832510D01*
X112057628Y-69764689D01*
X112080165Y-69698554D01*
X112125218Y-69659515D01*
X112281694Y-69579787D01*
X112442464Y-69462981D01*
X112582981Y-69322464D01*
X112699787Y-69161694D01*
X112790005Y-68984632D01*
X112851413Y-68795636D01*
X112882500Y-68599361D01*
X112882500Y-68400639D01*
X112851413Y-68204364D01*
X112790005Y-68015368D01*
X112790005Y-68015367D01*
X112699786Y-67838305D01*
X112582981Y-67677536D01*
X112442464Y-67537019D01*
X112281694Y-67420213D01*
X112125218Y-67340484D01*
X112074423Y-67292510D01*
X112057628Y-67224689D01*
X112080165Y-67158554D01*
X112125218Y-67119515D01*
X112281694Y-67039787D01*
X112442464Y-66922981D01*
X112582981Y-66782464D01*
X112699787Y-66621694D01*
X112790005Y-66444632D01*
X112851413Y-66255636D01*
X112882500Y-66059361D01*
X112882500Y-65860639D01*
X112851413Y-65664364D01*
X112790005Y-65475368D01*
X112790005Y-65475367D01*
X112699786Y-65298305D01*
X112582981Y-65137536D01*
X112442464Y-64997019D01*
X112281694Y-64880213D01*
X112124667Y-64800203D01*
X112073872Y-64752229D01*
X112057077Y-64684408D01*
X112079614Y-64618273D01*
X112124669Y-64579234D01*
X112281422Y-64499364D01*
X112318716Y-64472268D01*
X111704095Y-63857647D01*
X111791571Y-63834208D01*
X111892930Y-63775689D01*
X111975689Y-63692930D01*
X112034208Y-63591571D01*
X112057647Y-63504094D01*
X112672268Y-64118715D01*
X112699362Y-64081425D01*
X112789542Y-63904437D01*
X112850924Y-63715523D01*
X112850924Y-63715520D01*
X112882000Y-63519321D01*
X112882000Y-63320678D01*
X112850924Y-63124479D01*
X112850924Y-63124476D01*
X112789542Y-62935562D01*
X112699358Y-62758567D01*
X112672268Y-62721283D01*
X112057647Y-63335904D01*
X112034208Y-63248429D01*
X111975689Y-63147070D01*
X111892930Y-63064311D01*
X111791571Y-63005792D01*
X111704094Y-62982352D01*
X112318715Y-62367731D01*
X112318715Y-62367730D01*
X112281432Y-62340641D01*
X112124668Y-62260765D01*
X112073872Y-62212790D01*
X112057077Y-62144969D01*
X112079615Y-62078834D01*
X112124667Y-62039796D01*
X112281694Y-61959787D01*
X112442464Y-61842981D01*
X112582981Y-61702464D01*
X112699787Y-61541694D01*
X112766548Y-61410668D01*
X115864999Y-61410668D01*
X115864999Y-61589331D01*
X115892945Y-61765780D01*
X115948154Y-61935693D01*
X116029259Y-62094869D01*
X116038650Y-62107793D01*
X116038651Y-62107794D01*
X116618999Y-61527446D01*
X116618999Y-61550160D01*
X116644963Y-61647061D01*
X116695123Y-61733940D01*
X116766059Y-61804876D01*
X116852938Y-61855036D01*
X116949839Y-61881000D01*
X116972553Y-61881000D01*
X116392204Y-62461347D01*
X116392204Y-62461348D01*
X116405128Y-62470738D01*
X116564305Y-62551844D01*
X116734218Y-62607053D01*
X116910668Y-62635000D01*
X117089330Y-62635000D01*
X117265779Y-62607053D01*
X117435692Y-62551844D01*
X117594866Y-62470739D01*
X117594871Y-62470737D01*
X117607793Y-62461347D01*
X117027446Y-61881000D01*
X117050159Y-61881000D01*
X117147060Y-61855036D01*
X117233939Y-61804876D01*
X117304875Y-61733940D01*
X117355035Y-61647061D01*
X117380999Y-61550160D01*
X117380999Y-61527446D01*
X117961346Y-62107793D01*
X117964658Y-62107533D01*
X118033035Y-62121899D01*
X118074701Y-62158265D01*
X118114317Y-62212790D01*
X118133889Y-62239728D01*
X118260272Y-62366111D01*
X118404868Y-62471167D01*
X118564119Y-62552309D01*
X118564121Y-62552310D01*
X118703314Y-62597536D01*
X118734103Y-62607540D01*
X118910634Y-62635500D01*
X118910635Y-62635500D01*
X119089365Y-62635500D01*
X119089366Y-62635500D01*
X119265897Y-62607540D01*
X119265900Y-62607539D01*
X119265901Y-62607539D01*
X119435878Y-62552310D01*
X119435878Y-62552309D01*
X119435881Y-62552309D01*
X119595132Y-62471167D01*
X119739728Y-62366111D01*
X119866111Y-62239728D01*
X119971167Y-62095132D01*
X120052309Y-61935881D01*
X120107540Y-61765897D01*
X120135500Y-61589366D01*
X120135500Y-61410634D01*
X120107540Y-61234103D01*
X120107539Y-61234099D01*
X120107539Y-61234098D01*
X120052310Y-61064121D01*
X120052308Y-61064118D01*
X120009123Y-60979361D01*
X119971167Y-60904868D01*
X119866111Y-60760272D01*
X119739728Y-60633889D01*
X119595132Y-60528833D01*
X119435881Y-60447691D01*
X119435878Y-60447689D01*
X119265899Y-60392460D01*
X119148209Y-60373820D01*
X119089366Y-60364500D01*
X118910634Y-60364500D01*
X118851790Y-60373820D01*
X118734101Y-60392460D01*
X118734098Y-60392460D01*
X118564121Y-60447689D01*
X118564118Y-60447691D01*
X118404867Y-60528833D01*
X118260270Y-60633890D01*
X118133891Y-60760269D01*
X118133884Y-60760278D01*
X118074702Y-60841734D01*
X118019372Y-60884400D01*
X117964657Y-60892466D01*
X117961346Y-60892205D01*
X117380999Y-61472552D01*
X117380999Y-61449840D01*
X117355035Y-61352939D01*
X117304875Y-61266060D01*
X117233939Y-61195124D01*
X117147060Y-61144964D01*
X117050159Y-61119000D01*
X117027446Y-61119000D01*
X117607793Y-60538652D01*
X117607792Y-60538651D01*
X117594868Y-60529260D01*
X117435692Y-60448155D01*
X117265779Y-60392946D01*
X117089330Y-60365000D01*
X116910668Y-60365000D01*
X116734218Y-60392946D01*
X116564305Y-60448155D01*
X116405126Y-60529262D01*
X116392204Y-60538651D01*
X116392203Y-60538651D01*
X116972553Y-61119000D01*
X116949839Y-61119000D01*
X116852938Y-61144964D01*
X116766059Y-61195124D01*
X116695123Y-61266060D01*
X116644963Y-61352939D01*
X116618999Y-61449840D01*
X116618999Y-61472553D01*
X116038650Y-60892204D01*
X116038650Y-60892205D01*
X116029261Y-60905127D01*
X115948154Y-61064306D01*
X115892945Y-61234219D01*
X115864999Y-61410668D01*
X112766548Y-61410668D01*
X112790005Y-61364632D01*
X112851413Y-61175636D01*
X112882500Y-60979361D01*
X112882500Y-60780639D01*
X112851413Y-60584364D01*
X112833370Y-60528833D01*
X112790006Y-60395370D01*
X112790005Y-60395367D01*
X112699786Y-60218305D01*
X112582981Y-60057536D01*
X112442464Y-59917019D01*
X112281694Y-59800213D01*
X112104632Y-59709994D01*
X112104629Y-59709993D01*
X111915637Y-59648587D01*
X111817498Y-59633043D01*
X111719361Y-59617500D01*
X111520639Y-59617500D01*
X111455214Y-59627862D01*
X111324362Y-59648587D01*
X111135370Y-59709993D01*
X111135367Y-59709994D01*
X110958305Y-59800213D01*
X110797533Y-59917021D01*
X110657021Y-60057533D01*
X110540213Y-60218305D01*
X110449994Y-60395367D01*
X110449993Y-60395370D01*
X110388587Y-60584362D01*
X110357500Y-60780639D01*
X97642500Y-60780639D01*
X97611413Y-60584364D01*
X97580709Y-60489866D01*
X97550006Y-60395370D01*
X97550005Y-60395367D01*
X97459786Y-60218305D01*
X97342981Y-60057536D01*
X97202464Y-59917019D01*
X97041694Y-59800213D01*
X96864632Y-59709994D01*
X96864629Y-59709993D01*
X96675637Y-59648587D01*
X96577498Y-59633043D01*
X96479361Y-59617500D01*
X96280639Y-59617500D01*
X96215214Y-59627862D01*
X96084362Y-59648587D01*
X95895370Y-59709993D01*
X95895367Y-59709994D01*
X95718305Y-59800213D01*
X95557533Y-59917021D01*
X95417021Y-60057533D01*
X95300213Y-60218305D01*
X95209994Y-60395367D01*
X95209993Y-60395370D01*
X95148587Y-60584362D01*
X95117500Y-60780639D01*
X78000500Y-60780639D01*
X78000500Y-56812368D01*
X81715000Y-56812368D01*
X81715000Y-56991031D01*
X81742946Y-57167480D01*
X81798155Y-57337393D01*
X81879260Y-57496569D01*
X81888651Y-57509493D01*
X81888652Y-57509494D01*
X82469000Y-56929146D01*
X82469000Y-56951860D01*
X82494964Y-57048761D01*
X82545124Y-57135640D01*
X82616060Y-57206576D01*
X82702939Y-57256736D01*
X82799840Y-57282700D01*
X82822554Y-57282700D01*
X82242205Y-57863047D01*
X82242205Y-57863048D01*
X82255129Y-57872438D01*
X82414306Y-57953544D01*
X82584219Y-58008753D01*
X82760669Y-58036700D01*
X82939331Y-58036700D01*
X83115780Y-58008753D01*
X83285693Y-57953544D01*
X83444867Y-57872439D01*
X83444872Y-57872437D01*
X83457794Y-57863047D01*
X82877447Y-57282700D01*
X82900160Y-57282700D01*
X82997061Y-57256736D01*
X83083940Y-57206576D01*
X83154876Y-57135640D01*
X83205036Y-57048761D01*
X83231000Y-56951860D01*
X83231000Y-56929146D01*
X83811347Y-57509493D01*
X83814659Y-57509233D01*
X83883036Y-57523599D01*
X83924702Y-57559965D01*
X83979882Y-57635912D01*
X83983890Y-57641428D01*
X84110273Y-57767811D01*
X84254869Y-57872867D01*
X84414120Y-57954009D01*
X84414122Y-57954010D01*
X84572671Y-58005525D01*
X84584104Y-58009240D01*
X84760635Y-58037200D01*
X84760636Y-58037200D01*
X84939366Y-58037200D01*
X84939367Y-58037200D01*
X85115898Y-58009240D01*
X85115901Y-58009239D01*
X85115902Y-58009239D01*
X85285879Y-57954010D01*
X85285879Y-57954009D01*
X85285882Y-57954009D01*
X85445133Y-57872867D01*
X85589729Y-57767811D01*
X85716112Y-57641428D01*
X85821168Y-57496832D01*
X85902310Y-57337581D01*
X85957541Y-57167597D01*
X85985501Y-56991066D01*
X85985501Y-56812334D01*
X85957541Y-56635803D01*
X85957540Y-56635799D01*
X85957540Y-56635798D01*
X85920142Y-56520700D01*
X85902310Y-56465819D01*
X85821168Y-56306568D01*
X85716112Y-56161972D01*
X85589729Y-56035589D01*
X85445133Y-55930533D01*
X85285882Y-55849391D01*
X85285879Y-55849389D01*
X85115900Y-55794160D01*
X84998210Y-55775520D01*
X84939367Y-55766200D01*
X84760635Y-55766200D01*
X84701791Y-55775520D01*
X84584102Y-55794160D01*
X84584099Y-55794160D01*
X84414122Y-55849389D01*
X84414119Y-55849391D01*
X84254868Y-55930533D01*
X84110271Y-56035590D01*
X83983892Y-56161969D01*
X83983885Y-56161978D01*
X83924703Y-56243434D01*
X83869373Y-56286100D01*
X83814658Y-56294166D01*
X83811347Y-56293905D01*
X83231000Y-56874252D01*
X83231000Y-56851540D01*
X83205036Y-56754639D01*
X83154876Y-56667760D01*
X83083940Y-56596824D01*
X82997061Y-56546664D01*
X82900160Y-56520700D01*
X82877447Y-56520700D01*
X83457794Y-55940352D01*
X83457793Y-55940351D01*
X83444869Y-55930960D01*
X83285693Y-55849855D01*
X83115780Y-55794646D01*
X82939331Y-55766700D01*
X82760669Y-55766700D01*
X82584219Y-55794646D01*
X82414306Y-55849855D01*
X82255127Y-55930962D01*
X82242205Y-55940351D01*
X82242204Y-55940351D01*
X82822554Y-56520700D01*
X82799840Y-56520700D01*
X82702939Y-56546664D01*
X82616060Y-56596824D01*
X82545124Y-56667760D01*
X82494964Y-56754639D01*
X82469000Y-56851540D01*
X82469000Y-56874253D01*
X81888651Y-56293904D01*
X81888651Y-56293905D01*
X81879262Y-56306827D01*
X81798155Y-56466006D01*
X81742946Y-56635919D01*
X81715000Y-56812368D01*
X78000500Y-56812368D01*
X78000500Y-55410668D01*
X115864999Y-55410668D01*
X115864999Y-55589331D01*
X115892945Y-55765780D01*
X115948154Y-55935693D01*
X116029259Y-56094869D01*
X116038650Y-56107793D01*
X116038651Y-56107794D01*
X116618999Y-55527446D01*
X116618999Y-55550160D01*
X116644963Y-55647061D01*
X116695123Y-55733940D01*
X116766059Y-55804876D01*
X116852938Y-55855036D01*
X116949839Y-55881000D01*
X116972553Y-55881000D01*
X116392204Y-56461347D01*
X116392204Y-56461348D01*
X116405128Y-56470738D01*
X116564305Y-56551844D01*
X116734218Y-56607053D01*
X116910668Y-56635000D01*
X117089330Y-56635000D01*
X117265779Y-56607053D01*
X117435692Y-56551844D01*
X117594866Y-56470739D01*
X117594871Y-56470737D01*
X117607793Y-56461347D01*
X117027446Y-55881000D01*
X117050159Y-55881000D01*
X117147060Y-55855036D01*
X117233939Y-55804876D01*
X117304875Y-55733940D01*
X117355035Y-55647061D01*
X117380999Y-55550160D01*
X117380999Y-55527446D01*
X117961346Y-56107793D01*
X117964658Y-56107533D01*
X118033035Y-56121899D01*
X118074701Y-56158265D01*
X118129881Y-56234212D01*
X118133889Y-56239728D01*
X118260272Y-56366111D01*
X118404868Y-56471167D01*
X118564119Y-56552309D01*
X118564121Y-56552310D01*
X118701122Y-56596824D01*
X118734103Y-56607540D01*
X118910634Y-56635500D01*
X118910635Y-56635500D01*
X119089365Y-56635500D01*
X119089366Y-56635500D01*
X119265897Y-56607540D01*
X119265900Y-56607539D01*
X119265901Y-56607539D01*
X119435878Y-56552310D01*
X119435878Y-56552309D01*
X119435881Y-56552309D01*
X119595132Y-56471167D01*
X119739728Y-56366111D01*
X119866111Y-56239728D01*
X119971167Y-56095132D01*
X120052309Y-55935881D01*
X120079059Y-55853554D01*
X120107539Y-55765901D01*
X120107539Y-55765900D01*
X120107540Y-55765897D01*
X120135500Y-55589366D01*
X120135500Y-55410634D01*
X120107540Y-55234103D01*
X120107539Y-55234099D01*
X120107539Y-55234098D01*
X120052310Y-55064121D01*
X120052308Y-55064118D01*
X119971299Y-54905127D01*
X119971167Y-54904868D01*
X119866111Y-54760272D01*
X119739728Y-54633889D01*
X119595132Y-54528833D01*
X119435881Y-54447691D01*
X119435878Y-54447689D01*
X119265899Y-54392460D01*
X119148209Y-54373820D01*
X119089366Y-54364500D01*
X118910634Y-54364500D01*
X118851790Y-54373820D01*
X118734101Y-54392460D01*
X118734098Y-54392460D01*
X118564121Y-54447689D01*
X118564118Y-54447691D01*
X118404867Y-54528833D01*
X118260270Y-54633890D01*
X118133891Y-54760269D01*
X118133884Y-54760278D01*
X118074702Y-54841734D01*
X118019372Y-54884400D01*
X117964657Y-54892466D01*
X117961346Y-54892205D01*
X117380999Y-55472552D01*
X117380999Y-55449840D01*
X117355035Y-55352939D01*
X117304875Y-55266060D01*
X117233939Y-55195124D01*
X117147060Y-55144964D01*
X117050159Y-55119000D01*
X117027446Y-55119000D01*
X117607793Y-54538652D01*
X117607792Y-54538651D01*
X117594868Y-54529260D01*
X117435692Y-54448155D01*
X117265779Y-54392946D01*
X117089330Y-54365000D01*
X116910668Y-54365000D01*
X116734218Y-54392946D01*
X116564305Y-54448155D01*
X116405126Y-54529262D01*
X116392204Y-54538651D01*
X116392203Y-54538651D01*
X116972553Y-55119000D01*
X116949839Y-55119000D01*
X116852938Y-55144964D01*
X116766059Y-55195124D01*
X116695123Y-55266060D01*
X116644963Y-55352939D01*
X116618999Y-55449840D01*
X116618999Y-55472553D01*
X116038650Y-54892204D01*
X116038650Y-54892205D01*
X116029261Y-54905127D01*
X115948154Y-55064306D01*
X115892945Y-55234219D01*
X115864999Y-55410668D01*
X78000500Y-55410668D01*
X78000500Y-50124500D01*
X78020185Y-50057461D01*
X78072989Y-50011706D01*
X78124500Y-50000500D01*
X124875500Y-50000500D01*
X124942539Y-50020185D01*
G37*
%TD.AperFunction*%
%TD*%
M02*
