%TF.GenerationSoftware,KiCad,Pcbnew,9.0.0*%
%TF.CreationDate,2025-09-07T15:38:33-04:00*%
%TF.ProjectId,OlfactoryDisplay,4f6c6661-6374-46f7-9279-446973706c61,rev?*%
%TF.SameCoordinates,Original*%
%TF.FileFunction,Soldermask,Top*%
%TF.FilePolarity,Negative*%
%FSLAX46Y46*%
G04 Gerber Fmt 4.6, Leading zero omitted, Abs format (unit mm)*
G04 Created by KiCad (PCBNEW 9.0.0) date 2025-09-07 15:38:33*
%MOMM*%
%LPD*%
G01*
G04 APERTURE LIST*
G04 Aperture macros list*
%AMRoundRect*
0 Rectangle with rounded corners*
0 $1 Rounding radius*
0 $2 $3 $4 $5 $6 $7 $8 $9 X,Y pos of 4 corners*
0 Add a 4 corners polygon primitive as box body*
4,1,4,$2,$3,$4,$5,$6,$7,$8,$9,$2,$3,0*
0 Add four circle primitives for the rounded corners*
1,1,$1+$1,$2,$3*
1,1,$1+$1,$4,$5*
1,1,$1+$1,$6,$7*
1,1,$1+$1,$8,$9*
0 Add four rect primitives between the rounded corners*
20,1,$1+$1,$2,$3,$4,$5,0*
20,1,$1+$1,$4,$5,$6,$7,0*
20,1,$1+$1,$6,$7,$8,$9,0*
20,1,$1+$1,$8,$9,$2,$3,0*%
G04 Aperture macros list end*
%ADD10C,1.270000*%
%ADD11R,0.457200X1.117600*%
%ADD12C,3.200000*%
%ADD13R,1.117600X0.457200*%
%ADD14RoundRect,0.152400X1.063600X0.609600X-1.063600X0.609600X-1.063600X-0.609600X1.063600X-0.609600X0*%
%ADD15C,1.524000*%
%ADD16RoundRect,0.152400X-1.063600X-0.609600X1.063600X-0.609600X1.063600X0.609600X-1.063600X0.609600X0*%
%ADD17RoundRect,0.102000X-0.644000X-0.644000X0.644000X-0.644000X0.644000X0.644000X-0.644000X0.644000X0*%
%ADD18C,1.492000*%
G04 APERTURE END LIST*
D10*
%TO.C,J3*%
X84850002Y-68901700D03*
X82850001Y-68901700D03*
%TD*%
D11*
%TO.C,U2*%
X115200002Y-67000000D03*
X116500000Y-67000000D03*
X115850001Y-65196600D03*
%TD*%
D12*
%TO.C,REF\u002A\u002A*%
X75500000Y-81500000D03*
%TD*%
D10*
%TO.C,J2*%
X84850001Y-62401700D03*
X82850000Y-62401700D03*
%TD*%
D13*
%TO.C,U1*%
X115500000Y-69500000D03*
X115500000Y-70799998D03*
X117303400Y-70149999D03*
%TD*%
D14*
%TO.C,U7*%
X95545000Y-59880000D03*
D15*
X96380000Y-59880000D03*
D14*
X95545000Y-62420000D03*
D15*
X96380000Y-62420000D03*
D14*
X95545000Y-64960000D03*
D15*
X96380000Y-64960000D03*
D14*
X95545000Y-67500000D03*
D15*
X96380000Y-67500000D03*
D14*
X95545000Y-70040000D03*
D15*
X96380000Y-70040000D03*
D14*
X95545000Y-72580000D03*
D15*
X96380000Y-72580000D03*
D14*
X95545000Y-75120000D03*
D15*
X96380000Y-75120000D03*
X111620000Y-75120000D03*
D16*
X112455000Y-75120000D03*
D15*
X111620000Y-72580000D03*
D16*
X112455000Y-72580000D03*
D15*
X111620000Y-70040000D03*
D16*
X112455000Y-70040000D03*
D15*
X111620000Y-67500000D03*
D16*
X112455000Y-67500000D03*
D15*
X111620000Y-64960000D03*
D16*
X112455000Y-64960000D03*
D15*
X111620000Y-62420000D03*
D16*
X112455000Y-62420000D03*
D15*
X111620000Y-59880000D03*
D16*
X112455000Y-59880000D03*
%TD*%
D10*
%TO.C,J9*%
X119000000Y-60500000D03*
X116999999Y-60500000D03*
%TD*%
D17*
%TO.C,PS1*%
X103760000Y-80500000D03*
D18*
X106300000Y-80500000D03*
X113920000Y-80500000D03*
X119000000Y-80500000D03*
%TD*%
D10*
%TO.C,J6*%
X119000000Y-54500000D03*
X116999999Y-54500000D03*
%TD*%
D12*
%TO.C,REF\u002A\u002A*%
X128500000Y-81500000D03*
%TD*%
%TO.C,REF\u002A\u002A*%
X75500000Y-56000000D03*
%TD*%
D10*
%TO.C,J4*%
X84850001Y-75401700D03*
X82850000Y-75401700D03*
%TD*%
D11*
%TO.C,U3*%
X91299998Y-57500000D03*
X90000000Y-57500000D03*
X90649999Y-59303400D03*
%TD*%
%TO.C,U5*%
X91299998Y-67500000D03*
X90000000Y-67500000D03*
X90649999Y-69303400D03*
%TD*%
%TO.C,U4*%
X91299998Y-61901700D03*
X90000000Y-61901700D03*
X90649999Y-63705100D03*
%TD*%
D10*
%TO.C,J1*%
X84850001Y-55901700D03*
X82850000Y-55901700D03*
%TD*%
%TO.C,J7*%
X95999999Y-83000000D03*
X98000000Y-83000000D03*
%TD*%
%TO.C,J5*%
X119000001Y-74499999D03*
X117000000Y-74499999D03*
%TD*%
D12*
%TO.C,REF\u002A\u002A*%
X128500000Y-56000000D03*
%TD*%
D11*
%TO.C,U6*%
X91299998Y-72500000D03*
X90000000Y-72500000D03*
X90649999Y-74303400D03*
%TD*%
M02*
