%TF.GenerationSoftware,KiCad,Pcbnew,9.0.0*%
%TF.CreationDate,2025-11-02T14:52:09-05:00*%
%TF.ProjectId,OlfactoryDisplay_main_v2,4f6c6661-6374-46f7-9279-446973706c61,rev?*%
%TF.SameCoordinates,Original*%
%TF.FileFunction,Copper,L2,Bot*%
%TF.FilePolarity,Positive*%
%FSLAX46Y46*%
G04 Gerber Fmt 4.6, Leading zero omitted, Abs format (unit mm)*
G04 Created by KiCad (PCBNEW 9.0.0) date 2025-11-02 14:52:09*
%MOMM*%
%LPD*%
G01*
G04 APERTURE LIST*
%TA.AperFunction,ComponentPad*%
%ADD10C,1.270000*%
%TD*%
%TA.AperFunction,ComponentPad*%
%ADD11C,1.524000*%
%TD*%
%TA.AperFunction,ComponentPad*%
%ADD12R,1.180000X1.180000*%
%TD*%
%TA.AperFunction,ComponentPad*%
%ADD13C,1.180000*%
%TD*%
%TA.AperFunction,ViaPad*%
%ADD14C,0.600000*%
%TD*%
%TA.AperFunction,Conductor*%
%ADD15C,0.200000*%
%TD*%
G04 APERTURE END LIST*
D10*
%TO.P,J3,1,1*%
%TO.N,Atomizer 3 Out*%
X124000000Y-92818500D03*
%TO.P,J3,2,2*%
%TO.N,GND*%
X121999999Y-92818500D03*
%TD*%
%TO.P,J2,1,1*%
%TO.N,Atomizer 2 Out*%
X89000001Y-91318500D03*
%TO.P,J2,2,2*%
%TO.N,GND*%
X87000000Y-91318500D03*
%TD*%
D11*
%TO.P,U7,1,PA02_A0_D0*%
%TO.N,unconnected-(U7-PA02_A0_D0-Pad1)*%
X98380000Y-85698500D03*
%TO.P,U7,2,PA4_A1_D1*%
%TO.N,Net-(U3-G)*%
X98380000Y-88238500D03*
%TO.P,U7,3,PA10_A2_D2*%
%TO.N,Net-(U4-G)*%
X98380000Y-90778500D03*
%TO.P,U7,4,PA11_A3_D3*%
%TO.N,Net-(U2-G)*%
X98380000Y-93318500D03*
%TO.P,U7,5,PA8_A4_D4_SDA*%
%TO.N,unconnected-(U7-PA8_A4_D4_SDA-Pad5)*%
X98380000Y-95858500D03*
%TO.P,U7,6,PA9_A5_D5_SCL*%
%TO.N,unconnected-(U7-PA9_A5_D5_SCL-Pad6)*%
X98380000Y-98398500D03*
%TO.P,U7,7,PB08_A6_D6_TX*%
%TO.N,unconnected-(U7-PB08_A6_D6_TX-Pad7)*%
X98380000Y-100938500D03*
%TO.P,U7,8,PB09_A7_D7_RX*%
%TO.N,unconnected-(U7-PB09_A7_D7_RX-Pad8)*%
X113620000Y-100938500D03*
%TO.P,U7,9,PA7_A8_D8_SCK*%
%TO.N,Net-(U1-G)*%
X113620000Y-98398500D03*
%TO.P,U7,10,PA5_A9_D9_MISO*%
%TO.N,Net-(U5-G)*%
X113620000Y-95858500D03*
%TO.P,U7,11,PA6_A10_D10_MOSI*%
%TO.N,Net-(U6-G)*%
X113620000Y-93318500D03*
%TO.P,U7,12,3V3*%
%TO.N,unconnected-(U7-3V3-Pad12)*%
X113620000Y-90778500D03*
%TO.P,U7,13,GND*%
%TO.N,GND*%
X113620000Y-88238500D03*
%TO.P,U7,14,5V*%
%TO.N,unconnected-(U7-5V-Pad14)*%
X113620000Y-85698500D03*
%TD*%
D10*
%TO.P,J9,1,1*%
%TO.N,5V Fan Out*%
X89000001Y-97818500D03*
%TO.P,J9,2,2*%
%TO.N,GND*%
X87000000Y-97818500D03*
%TD*%
%TO.P,J4,1,1*%
%TO.N,Atomizer 4 Out*%
X124000000Y-86818500D03*
%TO.P,J4,2,2*%
%TO.N,GND*%
X121999999Y-86818500D03*
%TD*%
%TO.P,J1,1,1*%
%TO.N,Atomizer 1 Out*%
X89000001Y-84818500D03*
%TO.P,J1,2,2*%
%TO.N,GND*%
X87000000Y-84818500D03*
%TD*%
%TO.P,J7,1,1*%
%TO.N,Battery 1 In*%
X96999999Y-109818500D03*
%TO.P,J7,2,2*%
%TO.N,GND*%
X99000000Y-109818500D03*
%TD*%
%TO.P,J5,1,1*%
%TO.N,12V Fan Out*%
X124000000Y-98818500D03*
%TO.P,J5,2,2*%
%TO.N,GND*%
X121999999Y-98818500D03*
%TD*%
D12*
%TO.P,PS1,1,+VIN*%
%TO.N,GND*%
X119750000Y-111318500D03*
D13*
%TO.P,PS1,2,-VIN*%
%TO.N,Converter Out*%
X117210000Y-111318500D03*
%TO.P,PS1,4,-VOUT*%
%TO.N,Battery 1 In*%
X112130000Y-111318500D03*
%TO.P,PS1,6,+VOUT*%
%TO.N,GND*%
X107050000Y-111318500D03*
%TD*%
D14*
%TO.N,Battery 1 In*%
X117650000Y-93367650D03*
X117650000Y-87916800D03*
%TD*%
D15*
%TO.N,Battery 1 In*%
X112130000Y-111318500D02*
X117650000Y-105798500D01*
X117650000Y-93367650D02*
X117650000Y-87916800D01*
X117650000Y-105798500D02*
X117650000Y-93367650D01*
%TD*%
%TA.AperFunction,Conductor*%
%TO.N,GND*%
G36*
X127943039Y-80020185D02*
G01*
X127988794Y-80072989D01*
X128000000Y-80124500D01*
X128000000Y-87886696D01*
X127980315Y-87953735D01*
X127927511Y-87999490D01*
X127908097Y-88006469D01*
X127866853Y-88017520D01*
X127806812Y-88033608D01*
X127692686Y-88099500D01*
X127692683Y-88099502D01*
X127599502Y-88192683D01*
X127599500Y-88192686D01*
X127533608Y-88306812D01*
X127499500Y-88434108D01*
X127499500Y-105065891D01*
X127533608Y-105193187D01*
X127566554Y-105250250D01*
X127599500Y-105307314D01*
X127692686Y-105400500D01*
X127806814Y-105466392D01*
X127908095Y-105493529D01*
X127967753Y-105529892D01*
X127998283Y-105592739D01*
X128000000Y-105613303D01*
X128000000Y-113375500D01*
X127980315Y-113442539D01*
X127927511Y-113488294D01*
X127876000Y-113499500D01*
X84124000Y-113499500D01*
X84056961Y-113479815D01*
X84011206Y-113427011D01*
X84000000Y-113375500D01*
X84000000Y-111232715D01*
X105960000Y-111232715D01*
X105960000Y-111404284D01*
X105986839Y-111573742D01*
X106039859Y-111736919D01*
X106117749Y-111889786D01*
X106120867Y-111894077D01*
X106120868Y-111894077D01*
X106660000Y-111354945D01*
X106660000Y-111369844D01*
X106686578Y-111469034D01*
X106737923Y-111557965D01*
X106810535Y-111630577D01*
X106899466Y-111681922D01*
X106998656Y-111708500D01*
X107013553Y-111708500D01*
X106474420Y-112247630D01*
X106474420Y-112247631D01*
X106478711Y-112250748D01*
X106631580Y-112328640D01*
X106794757Y-112381660D01*
X106964216Y-112408500D01*
X107135784Y-112408500D01*
X107305242Y-112381660D01*
X107468424Y-112328638D01*
X107621277Y-112250754D01*
X107621293Y-112250744D01*
X107625577Y-112247631D01*
X107625578Y-112247630D01*
X107086448Y-111708500D01*
X107101344Y-111708500D01*
X107200534Y-111681922D01*
X107289465Y-111630577D01*
X107362077Y-111557965D01*
X107413422Y-111469034D01*
X107440000Y-111369844D01*
X107440000Y-111354948D01*
X107979130Y-111894078D01*
X107979131Y-111894077D01*
X107982244Y-111889793D01*
X107982254Y-111889777D01*
X108060138Y-111736924D01*
X108113160Y-111573742D01*
X108140000Y-111404284D01*
X108140000Y-111232715D01*
X108139994Y-111232676D01*
X111039500Y-111232676D01*
X111039500Y-111404323D01*
X111066352Y-111573860D01*
X111119392Y-111737104D01*
X111119393Y-111737107D01*
X111197183Y-111889777D01*
X111197321Y-111890047D01*
X111298213Y-112028913D01*
X111419587Y-112150287D01*
X111558453Y-112251179D01*
X111633465Y-112289399D01*
X111711392Y-112329106D01*
X111711395Y-112329107D01*
X111781392Y-112351850D01*
X111874641Y-112382148D01*
X112044176Y-112409000D01*
X112044177Y-112409000D01*
X112215823Y-112409000D01*
X112215824Y-112409000D01*
X112385359Y-112382148D01*
X112548607Y-112329106D01*
X112701547Y-112251179D01*
X112840413Y-112150287D01*
X112961787Y-112028913D01*
X113062679Y-111890047D01*
X113140606Y-111737107D01*
X113193648Y-111573859D01*
X113220500Y-111404324D01*
X113220500Y-111232676D01*
X116119500Y-111232676D01*
X116119500Y-111404323D01*
X116146352Y-111573860D01*
X116199392Y-111737104D01*
X116199393Y-111737107D01*
X116277183Y-111889777D01*
X116277321Y-111890047D01*
X116378213Y-112028913D01*
X116499587Y-112150287D01*
X116638453Y-112251179D01*
X116713465Y-112289399D01*
X116791392Y-112329106D01*
X116791395Y-112329107D01*
X116861392Y-112351850D01*
X116954641Y-112382148D01*
X117124176Y-112409000D01*
X117124177Y-112409000D01*
X117295823Y-112409000D01*
X117295824Y-112409000D01*
X117465359Y-112382148D01*
X117628607Y-112329106D01*
X117781547Y-112251179D01*
X117920413Y-112150287D01*
X118041787Y-112028913D01*
X118142679Y-111890047D01*
X118220606Y-111737107D01*
X118273648Y-111573859D01*
X118300500Y-111404324D01*
X118300500Y-111232676D01*
X118273648Y-111063141D01*
X118229102Y-110926040D01*
X118220607Y-110899895D01*
X118220606Y-110899892D01*
X118142678Y-110746952D01*
X118094511Y-110680655D01*
X118660000Y-110680655D01*
X118660000Y-111068500D01*
X119448458Y-111068500D01*
X119437923Y-111079035D01*
X119386578Y-111167966D01*
X119360000Y-111267156D01*
X119360000Y-111369844D01*
X119386578Y-111469034D01*
X119437923Y-111557965D01*
X119448458Y-111568500D01*
X118660000Y-111568500D01*
X118660000Y-111956344D01*
X118666401Y-112015872D01*
X118666403Y-112015879D01*
X118716645Y-112150586D01*
X118716649Y-112150593D01*
X118802809Y-112265687D01*
X118802812Y-112265690D01*
X118917906Y-112351850D01*
X118917913Y-112351854D01*
X119052620Y-112402096D01*
X119052627Y-112402098D01*
X119112155Y-112408499D01*
X119112172Y-112408500D01*
X119500000Y-112408500D01*
X119500000Y-111620042D01*
X119510535Y-111630577D01*
X119599466Y-111681922D01*
X119698656Y-111708500D01*
X119801344Y-111708500D01*
X119900534Y-111681922D01*
X119989465Y-111630577D01*
X120000000Y-111620042D01*
X120000000Y-112408500D01*
X120387828Y-112408500D01*
X120387844Y-112408499D01*
X120447372Y-112402098D01*
X120447379Y-112402096D01*
X120582086Y-112351854D01*
X120582093Y-112351850D01*
X120697187Y-112265690D01*
X120697190Y-112265687D01*
X120783350Y-112150593D01*
X120783354Y-112150586D01*
X120833596Y-112015879D01*
X120833598Y-112015872D01*
X120839999Y-111956344D01*
X120840000Y-111956327D01*
X120840000Y-111568500D01*
X120051542Y-111568500D01*
X120062077Y-111557965D01*
X120113422Y-111469034D01*
X120140000Y-111369844D01*
X120140000Y-111267156D01*
X120113422Y-111167966D01*
X120062077Y-111079035D01*
X120051542Y-111068500D01*
X120840000Y-111068500D01*
X120840000Y-110680672D01*
X120839999Y-110680655D01*
X120833598Y-110621127D01*
X120833596Y-110621120D01*
X120783354Y-110486413D01*
X120783350Y-110486406D01*
X120697190Y-110371312D01*
X120697187Y-110371309D01*
X120582093Y-110285149D01*
X120582086Y-110285145D01*
X120447379Y-110234903D01*
X120447372Y-110234901D01*
X120387844Y-110228500D01*
X120000000Y-110228500D01*
X120000000Y-111016958D01*
X119989465Y-111006423D01*
X119900534Y-110955078D01*
X119801344Y-110928500D01*
X119698656Y-110928500D01*
X119599466Y-110955078D01*
X119510535Y-111006423D01*
X119500000Y-111016958D01*
X119500000Y-110228500D01*
X119112155Y-110228500D01*
X119052627Y-110234901D01*
X119052620Y-110234903D01*
X118917913Y-110285145D01*
X118917906Y-110285149D01*
X118802812Y-110371309D01*
X118802809Y-110371312D01*
X118716649Y-110486406D01*
X118716645Y-110486413D01*
X118666403Y-110621120D01*
X118666401Y-110621127D01*
X118660000Y-110680655D01*
X118094511Y-110680655D01*
X118041787Y-110608087D01*
X117920413Y-110486713D01*
X117781547Y-110385821D01*
X117628607Y-110307893D01*
X117628604Y-110307892D01*
X117465360Y-110254852D01*
X117339407Y-110234903D01*
X117295824Y-110228000D01*
X117124176Y-110228000D01*
X117080593Y-110234903D01*
X116954639Y-110254852D01*
X116791395Y-110307892D01*
X116791392Y-110307893D01*
X116638452Y-110385821D01*
X116559224Y-110443383D01*
X116499587Y-110486713D01*
X116499585Y-110486715D01*
X116499584Y-110486715D01*
X116378215Y-110608084D01*
X116378215Y-110608085D01*
X116378213Y-110608087D01*
X116368744Y-110621120D01*
X116277321Y-110746952D01*
X116199393Y-110899892D01*
X116199392Y-110899895D01*
X116146352Y-111063139D01*
X116119500Y-111232676D01*
X113220500Y-111232676D01*
X113209050Y-111160387D01*
X113208965Y-111159817D01*
X113213674Y-111125723D01*
X113218085Y-111091597D01*
X113218465Y-111091039D01*
X113218526Y-111090605D01*
X113219700Y-111089234D01*
X113243919Y-111053814D01*
X118018713Y-106279021D01*
X118018716Y-106279020D01*
X118130520Y-106167216D01*
X118180639Y-106080404D01*
X118209577Y-106030285D01*
X118250501Y-105877557D01*
X118250501Y-105719443D01*
X118250501Y-105711848D01*
X118250500Y-105711830D01*
X118250500Y-98729168D01*
X120864999Y-98729168D01*
X120864999Y-98907831D01*
X120892945Y-99084280D01*
X120948154Y-99254193D01*
X121029259Y-99413369D01*
X121038650Y-99426293D01*
X121038651Y-99426294D01*
X121618999Y-98845946D01*
X121618999Y-98868660D01*
X121644963Y-98965561D01*
X121695123Y-99052440D01*
X121766059Y-99123376D01*
X121852938Y-99173536D01*
X121949839Y-99199500D01*
X121972553Y-99199500D01*
X121392204Y-99779847D01*
X121392204Y-99779848D01*
X121405128Y-99789238D01*
X121564305Y-99870344D01*
X121734218Y-99925553D01*
X121910668Y-99953500D01*
X122089330Y-99953500D01*
X122265779Y-99925553D01*
X122435692Y-99870344D01*
X122594866Y-99789239D01*
X122594871Y-99789237D01*
X122607793Y-99779847D01*
X122027446Y-99199500D01*
X122050159Y-99199500D01*
X122147060Y-99173536D01*
X122233939Y-99123376D01*
X122304875Y-99052440D01*
X122355035Y-98965561D01*
X122380999Y-98868660D01*
X122380999Y-98845946D01*
X122961346Y-99426293D01*
X122964658Y-99426033D01*
X123033035Y-99440399D01*
X123074701Y-99476765D01*
X123129881Y-99552712D01*
X123133889Y-99558228D01*
X123260272Y-99684611D01*
X123404868Y-99789667D01*
X123564119Y-99870809D01*
X123564121Y-99870810D01*
X123722670Y-99922325D01*
X123734103Y-99926040D01*
X123910634Y-99954000D01*
X123910635Y-99954000D01*
X124089365Y-99954000D01*
X124089366Y-99954000D01*
X124265897Y-99926040D01*
X124265900Y-99926039D01*
X124265901Y-99926039D01*
X124435878Y-99870810D01*
X124435878Y-99870809D01*
X124435881Y-99870809D01*
X124595132Y-99789667D01*
X124739728Y-99684611D01*
X124866111Y-99558228D01*
X124971167Y-99413632D01*
X125052309Y-99254381D01*
X125107540Y-99084397D01*
X125135500Y-98907866D01*
X125135500Y-98729134D01*
X125107540Y-98552603D01*
X125107539Y-98552599D01*
X125107539Y-98552598D01*
X125052310Y-98382621D01*
X125052308Y-98382618D01*
X124986969Y-98254381D01*
X124971167Y-98223368D01*
X124866111Y-98078772D01*
X124739728Y-97952389D01*
X124595132Y-97847333D01*
X124435881Y-97766191D01*
X124435878Y-97766189D01*
X124265899Y-97710960D01*
X124148209Y-97692320D01*
X124089366Y-97683000D01*
X123910634Y-97683000D01*
X123851790Y-97692320D01*
X123734101Y-97710960D01*
X123734098Y-97710960D01*
X123564121Y-97766189D01*
X123564118Y-97766191D01*
X123404867Y-97847333D01*
X123260270Y-97952390D01*
X123133891Y-98078769D01*
X123133884Y-98078778D01*
X123074702Y-98160234D01*
X123019372Y-98202900D01*
X122964657Y-98210966D01*
X122961346Y-98210705D01*
X122380999Y-98791052D01*
X122380999Y-98768340D01*
X122355035Y-98671439D01*
X122304875Y-98584560D01*
X122233939Y-98513624D01*
X122147060Y-98463464D01*
X122050159Y-98437500D01*
X122027446Y-98437500D01*
X122607793Y-97857152D01*
X122607792Y-97857151D01*
X122594868Y-97847760D01*
X122435692Y-97766655D01*
X122265779Y-97711446D01*
X122089330Y-97683500D01*
X121910668Y-97683500D01*
X121734218Y-97711446D01*
X121564305Y-97766655D01*
X121405126Y-97847762D01*
X121392204Y-97857151D01*
X121392203Y-97857151D01*
X121972553Y-98437500D01*
X121949839Y-98437500D01*
X121852938Y-98463464D01*
X121766059Y-98513624D01*
X121695123Y-98584560D01*
X121644963Y-98671439D01*
X121618999Y-98768340D01*
X121618999Y-98791053D01*
X121038650Y-98210704D01*
X121038650Y-98210705D01*
X121029261Y-98223627D01*
X120948154Y-98382806D01*
X120892945Y-98552719D01*
X120864999Y-98729168D01*
X118250500Y-98729168D01*
X118250500Y-93947415D01*
X118254715Y-93931788D01*
X118254096Y-93917770D01*
X118265438Y-93892042D01*
X118267325Y-93885049D01*
X118271007Y-93878720D01*
X118271789Y-93877939D01*
X118359394Y-93746829D01*
X118419737Y-93601147D01*
X118450500Y-93446492D01*
X118450500Y-93288808D01*
X118450500Y-93288805D01*
X118450499Y-93288803D01*
X118419738Y-93134160D01*
X118419737Y-93134153D01*
X118373640Y-93022864D01*
X118359397Y-92988477D01*
X118359390Y-92988464D01*
X118271398Y-92856775D01*
X118265747Y-92838728D01*
X118255523Y-92822819D01*
X118251071Y-92791857D01*
X118250520Y-92790097D01*
X118250500Y-92787884D01*
X118250500Y-92729168D01*
X120864999Y-92729168D01*
X120864999Y-92907831D01*
X120892945Y-93084280D01*
X120948154Y-93254193D01*
X121029259Y-93413369D01*
X121038650Y-93426293D01*
X121038651Y-93426294D01*
X121618999Y-92845946D01*
X121618999Y-92868660D01*
X121644963Y-92965561D01*
X121695123Y-93052440D01*
X121766059Y-93123376D01*
X121852938Y-93173536D01*
X121949839Y-93199500D01*
X121972553Y-93199500D01*
X121392204Y-93779847D01*
X121392204Y-93779848D01*
X121405128Y-93789238D01*
X121564305Y-93870344D01*
X121734218Y-93925553D01*
X121910668Y-93953500D01*
X122089330Y-93953500D01*
X122265779Y-93925553D01*
X122435692Y-93870344D01*
X122594866Y-93789239D01*
X122594871Y-93789237D01*
X122607793Y-93779847D01*
X122027446Y-93199500D01*
X122050159Y-93199500D01*
X122147060Y-93173536D01*
X122233939Y-93123376D01*
X122304875Y-93052440D01*
X122355035Y-92965561D01*
X122380999Y-92868660D01*
X122380999Y-92845946D01*
X122961346Y-93426293D01*
X122964658Y-93426033D01*
X123033035Y-93440399D01*
X123074701Y-93476765D01*
X123129881Y-93552712D01*
X123133889Y-93558228D01*
X123260272Y-93684611D01*
X123404868Y-93789667D01*
X123564119Y-93870809D01*
X123564121Y-93870810D01*
X123708650Y-93917770D01*
X123734103Y-93926040D01*
X123910634Y-93954000D01*
X123910635Y-93954000D01*
X124089365Y-93954000D01*
X124089366Y-93954000D01*
X124265897Y-93926040D01*
X124265900Y-93926039D01*
X124265901Y-93926039D01*
X124435878Y-93870810D01*
X124435878Y-93870809D01*
X124435881Y-93870809D01*
X124595132Y-93789667D01*
X124739728Y-93684611D01*
X124866111Y-93558228D01*
X124971167Y-93413632D01*
X125052309Y-93254381D01*
X125091371Y-93134160D01*
X125107539Y-93084401D01*
X125107539Y-93084400D01*
X125107540Y-93084397D01*
X125135500Y-92907866D01*
X125135500Y-92729134D01*
X125107540Y-92552603D01*
X125107539Y-92552599D01*
X125107539Y-92552598D01*
X125052310Y-92382621D01*
X125052308Y-92382618D01*
X125046292Y-92370809D01*
X124971167Y-92223368D01*
X124866111Y-92078772D01*
X124739728Y-91952389D01*
X124595132Y-91847333D01*
X124435881Y-91766191D01*
X124435878Y-91766189D01*
X124265899Y-91710960D01*
X124148209Y-91692320D01*
X124089366Y-91683000D01*
X123910634Y-91683000D01*
X123851790Y-91692320D01*
X123734101Y-91710960D01*
X123734098Y-91710960D01*
X123564121Y-91766189D01*
X123564118Y-91766191D01*
X123404867Y-91847333D01*
X123260270Y-91952390D01*
X123133891Y-92078769D01*
X123133884Y-92078778D01*
X123074702Y-92160234D01*
X123019372Y-92202900D01*
X122964657Y-92210966D01*
X122961346Y-92210705D01*
X122380999Y-92791052D01*
X122380999Y-92768340D01*
X122355035Y-92671439D01*
X122304875Y-92584560D01*
X122233939Y-92513624D01*
X122147060Y-92463464D01*
X122050159Y-92437500D01*
X122027446Y-92437500D01*
X122607793Y-91857152D01*
X122607792Y-91857151D01*
X122594868Y-91847760D01*
X122435692Y-91766655D01*
X122265779Y-91711446D01*
X122089330Y-91683500D01*
X121910668Y-91683500D01*
X121734218Y-91711446D01*
X121564305Y-91766655D01*
X121405126Y-91847762D01*
X121392204Y-91857151D01*
X121392203Y-91857151D01*
X121972553Y-92437500D01*
X121949839Y-92437500D01*
X121852938Y-92463464D01*
X121766059Y-92513624D01*
X121695123Y-92584560D01*
X121644963Y-92671439D01*
X121618999Y-92768340D01*
X121618999Y-92791053D01*
X121038650Y-92210704D01*
X121038650Y-92210705D01*
X121029261Y-92223627D01*
X120948154Y-92382806D01*
X120892945Y-92552719D01*
X120864999Y-92729168D01*
X118250500Y-92729168D01*
X118250500Y-88496565D01*
X118270185Y-88429526D01*
X118271398Y-88427674D01*
X118359390Y-88295985D01*
X118359390Y-88295984D01*
X118359394Y-88295979D01*
X118419737Y-88150297D01*
X118450500Y-87995642D01*
X118450500Y-87837958D01*
X118450500Y-87837955D01*
X118450499Y-87837953D01*
X118434353Y-87756779D01*
X118419738Y-87683308D01*
X118419737Y-87683307D01*
X118419737Y-87683303D01*
X118375625Y-87576806D01*
X118359397Y-87537627D01*
X118359390Y-87537614D01*
X118271789Y-87406511D01*
X118271786Y-87406507D01*
X118160292Y-87295013D01*
X118160288Y-87295010D01*
X118029185Y-87207409D01*
X118029172Y-87207402D01*
X117883501Y-87147064D01*
X117883489Y-87147061D01*
X117728845Y-87116300D01*
X117728842Y-87116300D01*
X117571158Y-87116300D01*
X117571155Y-87116300D01*
X117416510Y-87147061D01*
X117416498Y-87147064D01*
X117270827Y-87207402D01*
X117270814Y-87207409D01*
X117139711Y-87295010D01*
X117139707Y-87295013D01*
X117028213Y-87406507D01*
X117028210Y-87406511D01*
X116940609Y-87537614D01*
X116940602Y-87537627D01*
X116880264Y-87683298D01*
X116880261Y-87683310D01*
X116849500Y-87837953D01*
X116849500Y-87995646D01*
X116880261Y-88150289D01*
X116880264Y-88150301D01*
X116940602Y-88295972D01*
X116940609Y-88295985D01*
X117028602Y-88427674D01*
X117049480Y-88494351D01*
X117049500Y-88496565D01*
X117049500Y-92787884D01*
X117029815Y-92854923D01*
X117028602Y-92856775D01*
X116940609Y-92988464D01*
X116940602Y-92988477D01*
X116880264Y-93134148D01*
X116880261Y-93134160D01*
X116849500Y-93288803D01*
X116849500Y-93446496D01*
X116880261Y-93601139D01*
X116880264Y-93601151D01*
X116940602Y-93746822D01*
X116940609Y-93746835D01*
X117028602Y-93878524D01*
X117049480Y-93945201D01*
X117049500Y-93947415D01*
X117049500Y-105498402D01*
X117029815Y-105565441D01*
X117013181Y-105586083D01*
X112394686Y-110204577D01*
X112333363Y-110238062D01*
X112287606Y-110239369D01*
X112215828Y-110228000D01*
X112215824Y-110228000D01*
X112044176Y-110228000D01*
X112000593Y-110234903D01*
X111874639Y-110254852D01*
X111711395Y-110307892D01*
X111711392Y-110307893D01*
X111558452Y-110385821D01*
X111479224Y-110443383D01*
X111419587Y-110486713D01*
X111419585Y-110486715D01*
X111419584Y-110486715D01*
X111298215Y-110608084D01*
X111298215Y-110608085D01*
X111298213Y-110608087D01*
X111288744Y-110621120D01*
X111197321Y-110746952D01*
X111119393Y-110899892D01*
X111119392Y-110899895D01*
X111066352Y-111063139D01*
X111039500Y-111232676D01*
X108139994Y-111232676D01*
X108113160Y-111063257D01*
X108060140Y-110900080D01*
X107982248Y-110747211D01*
X107979131Y-110742920D01*
X107440000Y-111282051D01*
X107440000Y-111267156D01*
X107413422Y-111167966D01*
X107362077Y-111079035D01*
X107289465Y-111006423D01*
X107200534Y-110955078D01*
X107101344Y-110928500D01*
X107086447Y-110928500D01*
X107625578Y-110389369D01*
X107625577Y-110389367D01*
X107621286Y-110386249D01*
X107468419Y-110308359D01*
X107305242Y-110255339D01*
X107135784Y-110228500D01*
X106964216Y-110228500D01*
X106794757Y-110255339D01*
X106631580Y-110308359D01*
X106478716Y-110386249D01*
X106474421Y-110389367D01*
X106474421Y-110389369D01*
X107013554Y-110928500D01*
X106998656Y-110928500D01*
X106899466Y-110955078D01*
X106810535Y-111006423D01*
X106737923Y-111079035D01*
X106686578Y-111167966D01*
X106660000Y-111267156D01*
X106660000Y-111282052D01*
X106120869Y-110742921D01*
X106120867Y-110742921D01*
X106117749Y-110747216D01*
X106039859Y-110900080D01*
X105986839Y-111063257D01*
X105960000Y-111232715D01*
X84000000Y-111232715D01*
X84000000Y-109729134D01*
X95864499Y-109729134D01*
X95864499Y-109907865D01*
X95892459Y-110084398D01*
X95892459Y-110084401D01*
X95947688Y-110254378D01*
X95947690Y-110254381D01*
X96028832Y-110413632D01*
X96133888Y-110558228D01*
X96260271Y-110684611D01*
X96404867Y-110789667D01*
X96564118Y-110870809D01*
X96564120Y-110870810D01*
X96654205Y-110900080D01*
X96734102Y-110926040D01*
X96910633Y-110954000D01*
X96910634Y-110954000D01*
X97089364Y-110954000D01*
X97089365Y-110954000D01*
X97265896Y-110926040D01*
X97265899Y-110926039D01*
X97265900Y-110926039D01*
X97435877Y-110870810D01*
X97435877Y-110870809D01*
X97435880Y-110870809D01*
X97595131Y-110789667D01*
X97739727Y-110684611D01*
X97866110Y-110558228D01*
X97928420Y-110472465D01*
X97931898Y-110468452D01*
X97956998Y-110452319D01*
X97980626Y-110434100D01*
X97986749Y-110433197D01*
X97990674Y-110430675D01*
X98003861Y-110430674D01*
X98035344Y-110426033D01*
X98038652Y-110426293D01*
X98619000Y-109845945D01*
X98619000Y-109868660D01*
X98644964Y-109965561D01*
X98695124Y-110052440D01*
X98766060Y-110123376D01*
X98852939Y-110173536D01*
X98949840Y-110199500D01*
X98972554Y-110199500D01*
X98392205Y-110779847D01*
X98392205Y-110779848D01*
X98405129Y-110789238D01*
X98564306Y-110870344D01*
X98734219Y-110925553D01*
X98910669Y-110953500D01*
X99089331Y-110953500D01*
X99265780Y-110925553D01*
X99435693Y-110870344D01*
X99594867Y-110789239D01*
X99594872Y-110789237D01*
X99607794Y-110779847D01*
X99027447Y-110199500D01*
X99050160Y-110199500D01*
X99147061Y-110173536D01*
X99233940Y-110123376D01*
X99304876Y-110052440D01*
X99355036Y-109965561D01*
X99381000Y-109868660D01*
X99381000Y-109845946D01*
X99961348Y-110426294D01*
X99970737Y-110413372D01*
X99970739Y-110413368D01*
X99987575Y-110380327D01*
X100051844Y-110254193D01*
X100107053Y-110084280D01*
X100135000Y-109907831D01*
X100135000Y-109729168D01*
X100107053Y-109552719D01*
X100051844Y-109382806D01*
X99970738Y-109223629D01*
X99961347Y-109210705D01*
X99381000Y-109791052D01*
X99381000Y-109768340D01*
X99355036Y-109671439D01*
X99304876Y-109584560D01*
X99233940Y-109513624D01*
X99147061Y-109463464D01*
X99050160Y-109437500D01*
X99027447Y-109437500D01*
X99607794Y-108857152D01*
X99607793Y-108857151D01*
X99594869Y-108847760D01*
X99435693Y-108766655D01*
X99265780Y-108711446D01*
X99089331Y-108683500D01*
X98910669Y-108683500D01*
X98734219Y-108711446D01*
X98564306Y-108766655D01*
X98405127Y-108847762D01*
X98392205Y-108857151D01*
X98392204Y-108857151D01*
X98972554Y-109437500D01*
X98949840Y-109437500D01*
X98852939Y-109463464D01*
X98766060Y-109513624D01*
X98695124Y-109584560D01*
X98644964Y-109671439D01*
X98619000Y-109768340D01*
X98619000Y-109791053D01*
X98038651Y-109210704D01*
X98035343Y-109210965D01*
X98030426Y-109209932D01*
X98025608Y-109211347D01*
X97996574Y-109202820D01*
X97966966Y-109196601D01*
X97962077Y-109192690D01*
X97958569Y-109191660D01*
X97946274Y-109180047D01*
X97931897Y-109168546D01*
X97928417Y-109164529D01*
X97866110Y-109078772D01*
X97739727Y-108952389D01*
X97595131Y-108847333D01*
X97435880Y-108766191D01*
X97435877Y-108766189D01*
X97265898Y-108710960D01*
X97148208Y-108692320D01*
X97089365Y-108683000D01*
X96910633Y-108683000D01*
X96851789Y-108692320D01*
X96734100Y-108710960D01*
X96734097Y-108710960D01*
X96564120Y-108766189D01*
X96564117Y-108766191D01*
X96404866Y-108847333D01*
X96260269Y-108952390D01*
X96133889Y-109078770D01*
X96028832Y-109223367D01*
X95947690Y-109382618D01*
X95947688Y-109382621D01*
X95892459Y-109552598D01*
X95892459Y-109552601D01*
X95864499Y-109729134D01*
X84000000Y-109729134D01*
X84000000Y-105613303D01*
X84019685Y-105546264D01*
X84072489Y-105500509D01*
X84091895Y-105493532D01*
X84193186Y-105466392D01*
X84307314Y-105400500D01*
X84400500Y-105307314D01*
X84466392Y-105193186D01*
X84500500Y-105065892D01*
X84500500Y-97729168D01*
X85865000Y-97729168D01*
X85865000Y-97907831D01*
X85892946Y-98084280D01*
X85948155Y-98254193D01*
X86029260Y-98413369D01*
X86038651Y-98426293D01*
X86038652Y-98426294D01*
X86619000Y-97845946D01*
X86619000Y-97868660D01*
X86644964Y-97965561D01*
X86695124Y-98052440D01*
X86766060Y-98123376D01*
X86852939Y-98173536D01*
X86949840Y-98199500D01*
X86972554Y-98199500D01*
X86392205Y-98779847D01*
X86392205Y-98779848D01*
X86405129Y-98789238D01*
X86564306Y-98870344D01*
X86734219Y-98925553D01*
X86910669Y-98953500D01*
X87089331Y-98953500D01*
X87265780Y-98925553D01*
X87435693Y-98870344D01*
X87594867Y-98789239D01*
X87594872Y-98789237D01*
X87607794Y-98779847D01*
X87027447Y-98199500D01*
X87050160Y-98199500D01*
X87147061Y-98173536D01*
X87233940Y-98123376D01*
X87304876Y-98052440D01*
X87355036Y-97965561D01*
X87381000Y-97868660D01*
X87381000Y-97845946D01*
X87961347Y-98426293D01*
X87964659Y-98426033D01*
X88033036Y-98440399D01*
X88074702Y-98476765D01*
X88129800Y-98552598D01*
X88133890Y-98558228D01*
X88260273Y-98684611D01*
X88404869Y-98789667D01*
X88564120Y-98870809D01*
X88564122Y-98870810D01*
X88602046Y-98883132D01*
X88734104Y-98926040D01*
X88910635Y-98954000D01*
X88910636Y-98954000D01*
X89089366Y-98954000D01*
X89089367Y-98954000D01*
X89265898Y-98926040D01*
X89265901Y-98926039D01*
X89265902Y-98926039D01*
X89435879Y-98870810D01*
X89435879Y-98870809D01*
X89435882Y-98870809D01*
X89595133Y-98789667D01*
X89739729Y-98684611D01*
X89866112Y-98558228D01*
X89971168Y-98413632D01*
X90052310Y-98254381D01*
X90066501Y-98210705D01*
X90107540Y-98084401D01*
X90107540Y-98084400D01*
X90107541Y-98084397D01*
X90135501Y-97907866D01*
X90135501Y-97729134D01*
X90107541Y-97552603D01*
X90107540Y-97552599D01*
X90107540Y-97552598D01*
X90052311Y-97382621D01*
X90052309Y-97382618D01*
X89971300Y-97223627D01*
X89971168Y-97223368D01*
X89866112Y-97078772D01*
X89739729Y-96952389D01*
X89595133Y-96847333D01*
X89435882Y-96766191D01*
X89435879Y-96766189D01*
X89265900Y-96710960D01*
X89148210Y-96692320D01*
X89089367Y-96683000D01*
X88910635Y-96683000D01*
X88851791Y-96692320D01*
X88734102Y-96710960D01*
X88734099Y-96710960D01*
X88564122Y-96766189D01*
X88564119Y-96766191D01*
X88404868Y-96847333D01*
X88260271Y-96952390D01*
X88133892Y-97078769D01*
X88133885Y-97078778D01*
X88074703Y-97160234D01*
X88019373Y-97202900D01*
X87964658Y-97210966D01*
X87961347Y-97210705D01*
X87381000Y-97791052D01*
X87381000Y-97768340D01*
X87355036Y-97671439D01*
X87304876Y-97584560D01*
X87233940Y-97513624D01*
X87147061Y-97463464D01*
X87050160Y-97437500D01*
X87027447Y-97437500D01*
X87607794Y-96857152D01*
X87607793Y-96857151D01*
X87594869Y-96847760D01*
X87435693Y-96766655D01*
X87265780Y-96711446D01*
X87089331Y-96683500D01*
X86910669Y-96683500D01*
X86734219Y-96711446D01*
X86564306Y-96766655D01*
X86405127Y-96847762D01*
X86392205Y-96857151D01*
X86392204Y-96857151D01*
X86972554Y-97437500D01*
X86949840Y-97437500D01*
X86852939Y-97463464D01*
X86766060Y-97513624D01*
X86695124Y-97584560D01*
X86644964Y-97671439D01*
X86619000Y-97768340D01*
X86619000Y-97791053D01*
X86038651Y-97210704D01*
X86038651Y-97210705D01*
X86029262Y-97223627D01*
X85948155Y-97382806D01*
X85892946Y-97552719D01*
X85865000Y-97729168D01*
X84500500Y-97729168D01*
X84500500Y-91229168D01*
X85865000Y-91229168D01*
X85865000Y-91407831D01*
X85892946Y-91584280D01*
X85948155Y-91754193D01*
X86029260Y-91913369D01*
X86038651Y-91926293D01*
X86038652Y-91926294D01*
X86619000Y-91345946D01*
X86619000Y-91368660D01*
X86644964Y-91465561D01*
X86695124Y-91552440D01*
X86766060Y-91623376D01*
X86852939Y-91673536D01*
X86949840Y-91699500D01*
X86972554Y-91699500D01*
X86392205Y-92279847D01*
X86392205Y-92279848D01*
X86405129Y-92289238D01*
X86564306Y-92370344D01*
X86734219Y-92425553D01*
X86910669Y-92453500D01*
X87089331Y-92453500D01*
X87265780Y-92425553D01*
X87435693Y-92370344D01*
X87594867Y-92289239D01*
X87594872Y-92289237D01*
X87607794Y-92279847D01*
X87027447Y-91699500D01*
X87050160Y-91699500D01*
X87147061Y-91673536D01*
X87233940Y-91623376D01*
X87304876Y-91552440D01*
X87355036Y-91465561D01*
X87381000Y-91368660D01*
X87381000Y-91345946D01*
X87961347Y-91926293D01*
X87964659Y-91926033D01*
X88033036Y-91940399D01*
X88074702Y-91976765D01*
X88121373Y-92041000D01*
X88133890Y-92058228D01*
X88260273Y-92184611D01*
X88404869Y-92289667D01*
X88564120Y-92370809D01*
X88564122Y-92370810D01*
X88722671Y-92422325D01*
X88734104Y-92426040D01*
X88910635Y-92454000D01*
X88910636Y-92454000D01*
X89089366Y-92454000D01*
X89089367Y-92454000D01*
X89265898Y-92426040D01*
X89265901Y-92426039D01*
X89265902Y-92426039D01*
X89435879Y-92370810D01*
X89435879Y-92370809D01*
X89435882Y-92370809D01*
X89595133Y-92289667D01*
X89739729Y-92184611D01*
X89866112Y-92058228D01*
X89971168Y-91913632D01*
X90052310Y-91754381D01*
X90094876Y-91623376D01*
X90107540Y-91584401D01*
X90107540Y-91584400D01*
X90107541Y-91584397D01*
X90135501Y-91407866D01*
X90135501Y-91229134D01*
X90107541Y-91052603D01*
X90107540Y-91052599D01*
X90107540Y-91052598D01*
X90052311Y-90882621D01*
X90052309Y-90882618D01*
X90049886Y-90877861D01*
X89971168Y-90723368D01*
X89866112Y-90578772D01*
X89739729Y-90452389D01*
X89595133Y-90347333D01*
X89435882Y-90266191D01*
X89435879Y-90266189D01*
X89265900Y-90210960D01*
X89148210Y-90192320D01*
X89089367Y-90183000D01*
X88910635Y-90183000D01*
X88851791Y-90192320D01*
X88734102Y-90210960D01*
X88734099Y-90210960D01*
X88564122Y-90266189D01*
X88564119Y-90266191D01*
X88404868Y-90347333D01*
X88260271Y-90452390D01*
X88133892Y-90578769D01*
X88133885Y-90578778D01*
X88074703Y-90660234D01*
X88019373Y-90702900D01*
X87964658Y-90710966D01*
X87961347Y-90710705D01*
X87381000Y-91291052D01*
X87381000Y-91268340D01*
X87355036Y-91171439D01*
X87304876Y-91084560D01*
X87233940Y-91013624D01*
X87147061Y-90963464D01*
X87050160Y-90937500D01*
X87027447Y-90937500D01*
X87607794Y-90357152D01*
X87607793Y-90357151D01*
X87594869Y-90347760D01*
X87435693Y-90266655D01*
X87265780Y-90211446D01*
X87089331Y-90183500D01*
X86910669Y-90183500D01*
X86734219Y-90211446D01*
X86564306Y-90266655D01*
X86405127Y-90347762D01*
X86392205Y-90357151D01*
X86392204Y-90357151D01*
X86972554Y-90937500D01*
X86949840Y-90937500D01*
X86852939Y-90963464D01*
X86766060Y-91013624D01*
X86695124Y-91084560D01*
X86644964Y-91171439D01*
X86619000Y-91268340D01*
X86619000Y-91291053D01*
X86038651Y-90710704D01*
X86038651Y-90710705D01*
X86029262Y-90723627D01*
X85948155Y-90882806D01*
X85892946Y-91052719D01*
X85865000Y-91229168D01*
X84500500Y-91229168D01*
X84500500Y-88434108D01*
X84466392Y-88306814D01*
X84400500Y-88192686D01*
X84307314Y-88099500D01*
X84250250Y-88066554D01*
X84193187Y-88033608D01*
X84150519Y-88022175D01*
X84091905Y-88006470D01*
X84032246Y-87970106D01*
X84001717Y-87907259D01*
X84000000Y-87886696D01*
X84000000Y-84729168D01*
X85865000Y-84729168D01*
X85865000Y-84907831D01*
X85892946Y-85084280D01*
X85948155Y-85254193D01*
X86029260Y-85413369D01*
X86038651Y-85426293D01*
X86038652Y-85426294D01*
X86619000Y-84845946D01*
X86619000Y-84868660D01*
X86644964Y-84965561D01*
X86695124Y-85052440D01*
X86766060Y-85123376D01*
X86852939Y-85173536D01*
X86949840Y-85199500D01*
X86972554Y-85199500D01*
X86392205Y-85779847D01*
X86392205Y-85779848D01*
X86405129Y-85789238D01*
X86564306Y-85870344D01*
X86734219Y-85925553D01*
X86910669Y-85953500D01*
X87089331Y-85953500D01*
X87265780Y-85925553D01*
X87435693Y-85870344D01*
X87594867Y-85789239D01*
X87594872Y-85789237D01*
X87607794Y-85779847D01*
X87027447Y-85199500D01*
X87050160Y-85199500D01*
X87147061Y-85173536D01*
X87233940Y-85123376D01*
X87304876Y-85052440D01*
X87355036Y-84965561D01*
X87381000Y-84868660D01*
X87381000Y-84845946D01*
X87961347Y-85426293D01*
X87964659Y-85426033D01*
X88033036Y-85440399D01*
X88074702Y-85476765D01*
X88107118Y-85521380D01*
X88133890Y-85558228D01*
X88260273Y-85684611D01*
X88404869Y-85789667D01*
X88564120Y-85870809D01*
X88564122Y-85870810D01*
X88607829Y-85885011D01*
X88734104Y-85926040D01*
X88910635Y-85954000D01*
X88910636Y-85954000D01*
X89089366Y-85954000D01*
X89089367Y-85954000D01*
X89265898Y-85926040D01*
X89265901Y-85926039D01*
X89265902Y-85926039D01*
X89435879Y-85870810D01*
X89435879Y-85870809D01*
X89435882Y-85870809D01*
X89595133Y-85789667D01*
X89739729Y-85684611D01*
X89825201Y-85599139D01*
X97117500Y-85599139D01*
X97117500Y-85797860D01*
X97148587Y-85994137D01*
X97209993Y-86183129D01*
X97209994Y-86183132D01*
X97230496Y-86223368D01*
X97300213Y-86360194D01*
X97417019Y-86520964D01*
X97557536Y-86661481D01*
X97718306Y-86778287D01*
X97797226Y-86818499D01*
X97874780Y-86858015D01*
X97925576Y-86905990D01*
X97942371Y-86973811D01*
X97919833Y-87039946D01*
X97874780Y-87078985D01*
X97718305Y-87158713D01*
X97557533Y-87275521D01*
X97417021Y-87416033D01*
X97300213Y-87576805D01*
X97209994Y-87753867D01*
X97209993Y-87753870D01*
X97148587Y-87942862D01*
X97117500Y-88139139D01*
X97117500Y-88337860D01*
X97148587Y-88534137D01*
X97209993Y-88723129D01*
X97209994Y-88723132D01*
X97252888Y-88807314D01*
X97300213Y-88900194D01*
X97417019Y-89060964D01*
X97557536Y-89201481D01*
X97718306Y-89318287D01*
X97836832Y-89378679D01*
X97874780Y-89398015D01*
X97925576Y-89445990D01*
X97942371Y-89513811D01*
X97919833Y-89579946D01*
X97874780Y-89618985D01*
X97718305Y-89698713D01*
X97557533Y-89815521D01*
X97417021Y-89956033D01*
X97300213Y-90116805D01*
X97209994Y-90293867D01*
X97209993Y-90293870D01*
X97148587Y-90482862D01*
X97133396Y-90578778D01*
X97117500Y-90679139D01*
X97117500Y-90877861D01*
X97118254Y-90882619D01*
X97148587Y-91074137D01*
X97209993Y-91263129D01*
X97209994Y-91263132D01*
X97263764Y-91368660D01*
X97300213Y-91440194D01*
X97417019Y-91600964D01*
X97557536Y-91741481D01*
X97718306Y-91858287D01*
X97826410Y-91913369D01*
X97874780Y-91938015D01*
X97925576Y-91985990D01*
X97942371Y-92053811D01*
X97919833Y-92119946D01*
X97874780Y-92158985D01*
X97718305Y-92238713D01*
X97557533Y-92355521D01*
X97417021Y-92496033D01*
X97300213Y-92656805D01*
X97209994Y-92833867D01*
X97209993Y-92833870D01*
X97148587Y-93022862D01*
X97117500Y-93219139D01*
X97117500Y-93417860D01*
X97148587Y-93614137D01*
X97209993Y-93803129D01*
X97209994Y-93803132D01*
X97272620Y-93926040D01*
X97300213Y-93980194D01*
X97417019Y-94140964D01*
X97557536Y-94281481D01*
X97718306Y-94398287D01*
X97836832Y-94458679D01*
X97874780Y-94478015D01*
X97925576Y-94525990D01*
X97942371Y-94593811D01*
X97919833Y-94659946D01*
X97874780Y-94698985D01*
X97718305Y-94778713D01*
X97557533Y-94895521D01*
X97417021Y-95036033D01*
X97300213Y-95196805D01*
X97209994Y-95373867D01*
X97209993Y-95373870D01*
X97148587Y-95562862D01*
X97117500Y-95759139D01*
X97117500Y-95957860D01*
X97148587Y-96154137D01*
X97209993Y-96343129D01*
X97209994Y-96343132D01*
X97300213Y-96520194D01*
X97417019Y-96680964D01*
X97557536Y-96821481D01*
X97718306Y-96938287D01*
X97745983Y-96952389D01*
X97874780Y-97018015D01*
X97925576Y-97065990D01*
X97942371Y-97133811D01*
X97919833Y-97199946D01*
X97874780Y-97238985D01*
X97718305Y-97318713D01*
X97557533Y-97435521D01*
X97417021Y-97576033D01*
X97300213Y-97736805D01*
X97209994Y-97913867D01*
X97209993Y-97913870D01*
X97148587Y-98102862D01*
X97117500Y-98299139D01*
X97117500Y-98497860D01*
X97148587Y-98694137D01*
X97209993Y-98883129D01*
X97209994Y-98883132D01*
X97296262Y-99052440D01*
X97300213Y-99060194D01*
X97417019Y-99220964D01*
X97557536Y-99361481D01*
X97718306Y-99478287D01*
X97836832Y-99538679D01*
X97874780Y-99558015D01*
X97925576Y-99605990D01*
X97942371Y-99673811D01*
X97919833Y-99739946D01*
X97874780Y-99778985D01*
X97718305Y-99858713D01*
X97557533Y-99975521D01*
X97417021Y-100116033D01*
X97300213Y-100276805D01*
X97209994Y-100453867D01*
X97209993Y-100453870D01*
X97148587Y-100642862D01*
X97117500Y-100839139D01*
X97117500Y-101037860D01*
X97148587Y-101234137D01*
X97209993Y-101423129D01*
X97209994Y-101423132D01*
X97300213Y-101600194D01*
X97417019Y-101760964D01*
X97557536Y-101901481D01*
X97718306Y-102018287D01*
X97805149Y-102062535D01*
X97895367Y-102108505D01*
X97895370Y-102108506D01*
X97989866Y-102139209D01*
X98084364Y-102169913D01*
X98280639Y-102201000D01*
X98280640Y-102201000D01*
X98479360Y-102201000D01*
X98479361Y-102201000D01*
X98675636Y-102169913D01*
X98864632Y-102108505D01*
X99041694Y-102018287D01*
X99202464Y-101901481D01*
X99342981Y-101760964D01*
X99459787Y-101600194D01*
X99550005Y-101423132D01*
X99611413Y-101234136D01*
X99642500Y-101037861D01*
X99642500Y-100839139D01*
X99611413Y-100642864D01*
X99550005Y-100453868D01*
X99550005Y-100453867D01*
X99459786Y-100276805D01*
X99342981Y-100116036D01*
X99202464Y-99975519D01*
X99041694Y-99858713D01*
X98885218Y-99778984D01*
X98834423Y-99731010D01*
X98817628Y-99663189D01*
X98840165Y-99597054D01*
X98885218Y-99558015D01*
X99041694Y-99478287D01*
X99202464Y-99361481D01*
X99342981Y-99220964D01*
X99459787Y-99060194D01*
X99550005Y-98883132D01*
X99611413Y-98694136D01*
X99642500Y-98497861D01*
X99642500Y-98299139D01*
X99611413Y-98102864D01*
X99566801Y-97965561D01*
X99550006Y-97913870D01*
X99550005Y-97913867D01*
X99459786Y-97736805D01*
X99342981Y-97576036D01*
X99202464Y-97435519D01*
X99041694Y-97318713D01*
X98885218Y-97238984D01*
X98834423Y-97191010D01*
X98817628Y-97123189D01*
X98840165Y-97057054D01*
X98885218Y-97018015D01*
X99041694Y-96938287D01*
X99202464Y-96821481D01*
X99342981Y-96680964D01*
X99459787Y-96520194D01*
X99550005Y-96343132D01*
X99611413Y-96154136D01*
X99642500Y-95957861D01*
X99642500Y-95759139D01*
X99611413Y-95562864D01*
X99550005Y-95373868D01*
X99550005Y-95373867D01*
X99459786Y-95196805D01*
X99342981Y-95036036D01*
X99202464Y-94895519D01*
X99041694Y-94778713D01*
X98885218Y-94698984D01*
X98834423Y-94651010D01*
X98817628Y-94583189D01*
X98840165Y-94517054D01*
X98885218Y-94478015D01*
X99041694Y-94398287D01*
X99202464Y-94281481D01*
X99342981Y-94140964D01*
X99459787Y-93980194D01*
X99550005Y-93803132D01*
X99611413Y-93614136D01*
X99642500Y-93417861D01*
X99642500Y-93219139D01*
X99611413Y-93022864D01*
X99561310Y-92868660D01*
X99550006Y-92833870D01*
X99550005Y-92833867D01*
X99459786Y-92656805D01*
X99407297Y-92584560D01*
X99342981Y-92496036D01*
X99202464Y-92355519D01*
X99041694Y-92238713D01*
X98885218Y-92158984D01*
X98834423Y-92111010D01*
X98817628Y-92043189D01*
X98840165Y-91977054D01*
X98885218Y-91938015D01*
X99041694Y-91858287D01*
X99202464Y-91741481D01*
X99342981Y-91600964D01*
X99459787Y-91440194D01*
X99550005Y-91263132D01*
X99611413Y-91074136D01*
X99642500Y-90877861D01*
X99642500Y-90679139D01*
X99611413Y-90482864D01*
X99567516Y-90347762D01*
X99550006Y-90293870D01*
X99550005Y-90293867D01*
X99459786Y-90116805D01*
X99342981Y-89956036D01*
X99202464Y-89815519D01*
X99041694Y-89698713D01*
X98885218Y-89618984D01*
X98834423Y-89571010D01*
X98817628Y-89503189D01*
X98840165Y-89437054D01*
X98885218Y-89398015D01*
X99041694Y-89318287D01*
X99202464Y-89201481D01*
X99342981Y-89060964D01*
X99459787Y-88900194D01*
X99550005Y-88723132D01*
X99611413Y-88534136D01*
X99642500Y-88337861D01*
X99642500Y-88139139D01*
X99611413Y-87942864D01*
X99561637Y-87789667D01*
X99550006Y-87753870D01*
X99550005Y-87753867D01*
X99504035Y-87663649D01*
X99459787Y-87576806D01*
X99342981Y-87416036D01*
X99202464Y-87275519D01*
X99041694Y-87158713D01*
X98885218Y-87078984D01*
X98834423Y-87031010D01*
X98817628Y-86963189D01*
X98840165Y-86897054D01*
X98885218Y-86858015D01*
X99041694Y-86778287D01*
X99202464Y-86661481D01*
X99342981Y-86520964D01*
X99459787Y-86360194D01*
X99550005Y-86183132D01*
X99611413Y-85994136D01*
X99642500Y-85797861D01*
X99642500Y-85599139D01*
X112357500Y-85599139D01*
X112357500Y-85797860D01*
X112388587Y-85994137D01*
X112449993Y-86183129D01*
X112449994Y-86183132D01*
X112470496Y-86223368D01*
X112540213Y-86360194D01*
X112657019Y-86520964D01*
X112797536Y-86661481D01*
X112958306Y-86778287D01*
X113115332Y-86858296D01*
X113166127Y-86906269D01*
X113182922Y-86974090D01*
X113160385Y-87040225D01*
X113115332Y-87079264D01*
X112958566Y-87159141D01*
X112921283Y-87186229D01*
X112921282Y-87186230D01*
X113535906Y-87800852D01*
X113448429Y-87824292D01*
X113347070Y-87882811D01*
X113264311Y-87965570D01*
X113205792Y-88066929D01*
X113182352Y-88154405D01*
X112567730Y-87539782D01*
X112567729Y-87539783D01*
X112540643Y-87577064D01*
X112450457Y-87754062D01*
X112389075Y-87942976D01*
X112389075Y-87942979D01*
X112358000Y-88139178D01*
X112358000Y-88337821D01*
X112389075Y-88534020D01*
X112389075Y-88534023D01*
X112450457Y-88722937D01*
X112540641Y-88899932D01*
X112567730Y-88937215D01*
X112567731Y-88937216D01*
X113182352Y-88322594D01*
X113205792Y-88410071D01*
X113264311Y-88511430D01*
X113347070Y-88594189D01*
X113448429Y-88652708D01*
X113535905Y-88676147D01*
X112921283Y-89290768D01*
X112921283Y-89290769D01*
X112958567Y-89317858D01*
X113115331Y-89397734D01*
X113166127Y-89445709D01*
X113182922Y-89513530D01*
X113160384Y-89579665D01*
X113115331Y-89618704D01*
X112958305Y-89698713D01*
X112797533Y-89815521D01*
X112657021Y-89956033D01*
X112540213Y-90116805D01*
X112449994Y-90293867D01*
X112449993Y-90293870D01*
X112388587Y-90482862D01*
X112373396Y-90578778D01*
X112357500Y-90679139D01*
X112357500Y-90877861D01*
X112358254Y-90882619D01*
X112388587Y-91074137D01*
X112449993Y-91263129D01*
X112449994Y-91263132D01*
X112503764Y-91368660D01*
X112540213Y-91440194D01*
X112657019Y-91600964D01*
X112797536Y-91741481D01*
X112958306Y-91858287D01*
X113066410Y-91913369D01*
X113114780Y-91938015D01*
X113165576Y-91985990D01*
X113182371Y-92053811D01*
X113159833Y-92119946D01*
X113114780Y-92158985D01*
X112958305Y-92238713D01*
X112797533Y-92355521D01*
X112657021Y-92496033D01*
X112540213Y-92656805D01*
X112449994Y-92833867D01*
X112449993Y-92833870D01*
X112388587Y-93022862D01*
X112357500Y-93219139D01*
X112357500Y-93417860D01*
X112388587Y-93614137D01*
X112449993Y-93803129D01*
X112449994Y-93803132D01*
X112512620Y-93926040D01*
X112540213Y-93980194D01*
X112657019Y-94140964D01*
X112797536Y-94281481D01*
X112958306Y-94398287D01*
X113076832Y-94458679D01*
X113114780Y-94478015D01*
X113165576Y-94525990D01*
X113182371Y-94593811D01*
X113159833Y-94659946D01*
X113114780Y-94698985D01*
X112958305Y-94778713D01*
X112797533Y-94895521D01*
X112657021Y-95036033D01*
X112540213Y-95196805D01*
X112449994Y-95373867D01*
X112449993Y-95373870D01*
X112388587Y-95562862D01*
X112357500Y-95759139D01*
X112357500Y-95957860D01*
X112388587Y-96154137D01*
X112449993Y-96343129D01*
X112449994Y-96343132D01*
X112540213Y-96520194D01*
X112657019Y-96680964D01*
X112797536Y-96821481D01*
X112958306Y-96938287D01*
X112985983Y-96952389D01*
X113114780Y-97018015D01*
X113165576Y-97065990D01*
X113182371Y-97133811D01*
X113159833Y-97199946D01*
X113114780Y-97238985D01*
X112958305Y-97318713D01*
X112797533Y-97435521D01*
X112657021Y-97576033D01*
X112540213Y-97736805D01*
X112449994Y-97913867D01*
X112449993Y-97913870D01*
X112388587Y-98102862D01*
X112357500Y-98299139D01*
X112357500Y-98497860D01*
X112388587Y-98694137D01*
X112449993Y-98883129D01*
X112449994Y-98883132D01*
X112536262Y-99052440D01*
X112540213Y-99060194D01*
X112657019Y-99220964D01*
X112797536Y-99361481D01*
X112958306Y-99478287D01*
X113076832Y-99538679D01*
X113114780Y-99558015D01*
X113165576Y-99605990D01*
X113182371Y-99673811D01*
X113159833Y-99739946D01*
X113114780Y-99778985D01*
X112958305Y-99858713D01*
X112797533Y-99975521D01*
X112657021Y-100116033D01*
X112540213Y-100276805D01*
X112449994Y-100453867D01*
X112449993Y-100453870D01*
X112388587Y-100642862D01*
X112357500Y-100839139D01*
X112357500Y-101037860D01*
X112388587Y-101234137D01*
X112449993Y-101423129D01*
X112449994Y-101423132D01*
X112540213Y-101600194D01*
X112657019Y-101760964D01*
X112797536Y-101901481D01*
X112958306Y-102018287D01*
X113045149Y-102062535D01*
X113135367Y-102108505D01*
X113135370Y-102108506D01*
X113229866Y-102139209D01*
X113324364Y-102169913D01*
X113520639Y-102201000D01*
X113520640Y-102201000D01*
X113719360Y-102201000D01*
X113719361Y-102201000D01*
X113915636Y-102169913D01*
X114104632Y-102108505D01*
X114281694Y-102018287D01*
X114442464Y-101901481D01*
X114582981Y-101760964D01*
X114699787Y-101600194D01*
X114790005Y-101423132D01*
X114851413Y-101234136D01*
X114882500Y-101037861D01*
X114882500Y-100839139D01*
X114851413Y-100642864D01*
X114790005Y-100453868D01*
X114790005Y-100453867D01*
X114699786Y-100276805D01*
X114582981Y-100116036D01*
X114442464Y-99975519D01*
X114281694Y-99858713D01*
X114125218Y-99778984D01*
X114074423Y-99731010D01*
X114057628Y-99663189D01*
X114080165Y-99597054D01*
X114125218Y-99558015D01*
X114281694Y-99478287D01*
X114442464Y-99361481D01*
X114582981Y-99220964D01*
X114699787Y-99060194D01*
X114790005Y-98883132D01*
X114851413Y-98694136D01*
X114882500Y-98497861D01*
X114882500Y-98299139D01*
X114851413Y-98102864D01*
X114806801Y-97965561D01*
X114790006Y-97913870D01*
X114790005Y-97913867D01*
X114699786Y-97736805D01*
X114582981Y-97576036D01*
X114442464Y-97435519D01*
X114281694Y-97318713D01*
X114125218Y-97238984D01*
X114074423Y-97191010D01*
X114057628Y-97123189D01*
X114080165Y-97057054D01*
X114125218Y-97018015D01*
X114281694Y-96938287D01*
X114442464Y-96821481D01*
X114582981Y-96680964D01*
X114699787Y-96520194D01*
X114790005Y-96343132D01*
X114851413Y-96154136D01*
X114882500Y-95957861D01*
X114882500Y-95759139D01*
X114851413Y-95562864D01*
X114790005Y-95373868D01*
X114790005Y-95373867D01*
X114699786Y-95196805D01*
X114582981Y-95036036D01*
X114442464Y-94895519D01*
X114281694Y-94778713D01*
X114125218Y-94698984D01*
X114074423Y-94651010D01*
X114057628Y-94583189D01*
X114080165Y-94517054D01*
X114125218Y-94478015D01*
X114281694Y-94398287D01*
X114442464Y-94281481D01*
X114582981Y-94140964D01*
X114699787Y-93980194D01*
X114790005Y-93803132D01*
X114851413Y-93614136D01*
X114882500Y-93417861D01*
X114882500Y-93219139D01*
X114851413Y-93022864D01*
X114801310Y-92868660D01*
X114790006Y-92833870D01*
X114790005Y-92833867D01*
X114699786Y-92656805D01*
X114647297Y-92584560D01*
X114582981Y-92496036D01*
X114442464Y-92355519D01*
X114281694Y-92238713D01*
X114125218Y-92158984D01*
X114074423Y-92111010D01*
X114057628Y-92043189D01*
X114080165Y-91977054D01*
X114125218Y-91938015D01*
X114281694Y-91858287D01*
X114442464Y-91741481D01*
X114582981Y-91600964D01*
X114699787Y-91440194D01*
X114790005Y-91263132D01*
X114851413Y-91074136D01*
X114882500Y-90877861D01*
X114882500Y-90679139D01*
X114851413Y-90482864D01*
X114807516Y-90347762D01*
X114790006Y-90293870D01*
X114790005Y-90293867D01*
X114699786Y-90116805D01*
X114582981Y-89956036D01*
X114442464Y-89815519D01*
X114281694Y-89698713D01*
X114124667Y-89618703D01*
X114073872Y-89570729D01*
X114057077Y-89502908D01*
X114079614Y-89436773D01*
X114124669Y-89397734D01*
X114281422Y-89317864D01*
X114318716Y-89290768D01*
X113704095Y-88676147D01*
X113791571Y-88652708D01*
X113892930Y-88594189D01*
X113975689Y-88511430D01*
X114034208Y-88410071D01*
X114057647Y-88322594D01*
X114672268Y-88937215D01*
X114699362Y-88899925D01*
X114789542Y-88722937D01*
X114850924Y-88534023D01*
X114850924Y-88534020D01*
X114882000Y-88337821D01*
X114882000Y-88139178D01*
X114850924Y-87942979D01*
X114850924Y-87942976D01*
X114789542Y-87754062D01*
X114699358Y-87577067D01*
X114672268Y-87539783D01*
X114057647Y-88154404D01*
X114034208Y-88066929D01*
X113975689Y-87965570D01*
X113892930Y-87882811D01*
X113791571Y-87824292D01*
X113704094Y-87800852D01*
X114318716Y-87186231D01*
X114318715Y-87186230D01*
X114281432Y-87159141D01*
X114124668Y-87079265D01*
X114073872Y-87031290D01*
X114057077Y-86963469D01*
X114079615Y-86897334D01*
X114124667Y-86858296D01*
X114281694Y-86778287D01*
X114349301Y-86729168D01*
X120864999Y-86729168D01*
X120864999Y-86907831D01*
X120892945Y-87084280D01*
X120948154Y-87254193D01*
X121029259Y-87413369D01*
X121038650Y-87426293D01*
X121038651Y-87426294D01*
X121618999Y-86845946D01*
X121618999Y-86868660D01*
X121644963Y-86965561D01*
X121695123Y-87052440D01*
X121766059Y-87123376D01*
X121852938Y-87173536D01*
X121949839Y-87199500D01*
X121972553Y-87199500D01*
X121392204Y-87779847D01*
X121392204Y-87779848D01*
X121405128Y-87789238D01*
X121564305Y-87870344D01*
X121734218Y-87925553D01*
X121910668Y-87953500D01*
X122089330Y-87953500D01*
X122265779Y-87925553D01*
X122435692Y-87870344D01*
X122594866Y-87789239D01*
X122594871Y-87789237D01*
X122607793Y-87779847D01*
X122027446Y-87199500D01*
X122050159Y-87199500D01*
X122147060Y-87173536D01*
X122233939Y-87123376D01*
X122304875Y-87052440D01*
X122355035Y-86965561D01*
X122380999Y-86868660D01*
X122380999Y-86845946D01*
X122961346Y-87426293D01*
X122964658Y-87426033D01*
X123033035Y-87440399D01*
X123074701Y-87476765D01*
X123118912Y-87537614D01*
X123133889Y-87558228D01*
X123260272Y-87684611D01*
X123404868Y-87789667D01*
X123564119Y-87870809D01*
X123564121Y-87870810D01*
X123601057Y-87882811D01*
X123734103Y-87926040D01*
X123910634Y-87954000D01*
X123910635Y-87954000D01*
X124089365Y-87954000D01*
X124089366Y-87954000D01*
X124265897Y-87926040D01*
X124265900Y-87926039D01*
X124265901Y-87926039D01*
X124435878Y-87870810D01*
X124435878Y-87870809D01*
X124435881Y-87870809D01*
X124595132Y-87789667D01*
X124739728Y-87684611D01*
X124866111Y-87558228D01*
X124971167Y-87413632D01*
X125052309Y-87254381D01*
X125083254Y-87159141D01*
X125107539Y-87084401D01*
X125107539Y-87084400D01*
X125107540Y-87084397D01*
X125135500Y-86907866D01*
X125135500Y-86729134D01*
X125107540Y-86552603D01*
X125107539Y-86552599D01*
X125107539Y-86552598D01*
X125052310Y-86382621D01*
X125052308Y-86382618D01*
X125040883Y-86360194D01*
X124971167Y-86223368D01*
X124866111Y-86078772D01*
X124739728Y-85952389D01*
X124595132Y-85847333D01*
X124435881Y-85766191D01*
X124435878Y-85766189D01*
X124265899Y-85710960D01*
X124099537Y-85684611D01*
X124089366Y-85683000D01*
X123910634Y-85683000D01*
X123900463Y-85684611D01*
X123734101Y-85710960D01*
X123734098Y-85710960D01*
X123564121Y-85766189D01*
X123564118Y-85766191D01*
X123404867Y-85847333D01*
X123260270Y-85952390D01*
X123133891Y-86078769D01*
X123133884Y-86078778D01*
X123074702Y-86160234D01*
X123019372Y-86202900D01*
X122964657Y-86210966D01*
X122961346Y-86210705D01*
X122380999Y-86791052D01*
X122380999Y-86768340D01*
X122355035Y-86671439D01*
X122304875Y-86584560D01*
X122233939Y-86513624D01*
X122147060Y-86463464D01*
X122050159Y-86437500D01*
X122027446Y-86437500D01*
X122607793Y-85857152D01*
X122607792Y-85857151D01*
X122594868Y-85847760D01*
X122435692Y-85766655D01*
X122265779Y-85711446D01*
X122089330Y-85683500D01*
X121910668Y-85683500D01*
X121734218Y-85711446D01*
X121564305Y-85766655D01*
X121405126Y-85847762D01*
X121392204Y-85857151D01*
X121392203Y-85857151D01*
X121972553Y-86437500D01*
X121949839Y-86437500D01*
X121852938Y-86463464D01*
X121766059Y-86513624D01*
X121695123Y-86584560D01*
X121644963Y-86671439D01*
X121618999Y-86768340D01*
X121618999Y-86791053D01*
X121038650Y-86210704D01*
X121038650Y-86210705D01*
X121029261Y-86223627D01*
X120948154Y-86382806D01*
X120892945Y-86552719D01*
X120864999Y-86729168D01*
X114349301Y-86729168D01*
X114442464Y-86661481D01*
X114582981Y-86520964D01*
X114699787Y-86360194D01*
X114790005Y-86183132D01*
X114851413Y-85994136D01*
X114870947Y-85870808D01*
X114882500Y-85797861D01*
X114882500Y-85599139D01*
X114851413Y-85402864D01*
X114820709Y-85308366D01*
X114790006Y-85213870D01*
X114790005Y-85213867D01*
X114699786Y-85036805D01*
X114582981Y-84876036D01*
X114442464Y-84735519D01*
X114281694Y-84618713D01*
X114104632Y-84528494D01*
X114104629Y-84528493D01*
X113915637Y-84467087D01*
X113817498Y-84451543D01*
X113719361Y-84436000D01*
X113520639Y-84436000D01*
X113455214Y-84446362D01*
X113324362Y-84467087D01*
X113135370Y-84528493D01*
X113135367Y-84528494D01*
X112958305Y-84618713D01*
X112797533Y-84735521D01*
X112657021Y-84876033D01*
X112540213Y-85036805D01*
X112449994Y-85213867D01*
X112449993Y-85213870D01*
X112388587Y-85402862D01*
X112357500Y-85599139D01*
X99642500Y-85599139D01*
X99611413Y-85402864D01*
X99580709Y-85308366D01*
X99550006Y-85213870D01*
X99550005Y-85213867D01*
X99459786Y-85036805D01*
X99342981Y-84876036D01*
X99202464Y-84735519D01*
X99041694Y-84618713D01*
X98864632Y-84528494D01*
X98864629Y-84528493D01*
X98675637Y-84467087D01*
X98577498Y-84451543D01*
X98479361Y-84436000D01*
X98280639Y-84436000D01*
X98215214Y-84446362D01*
X98084362Y-84467087D01*
X97895370Y-84528493D01*
X97895367Y-84528494D01*
X97718305Y-84618713D01*
X97557533Y-84735521D01*
X97417021Y-84876033D01*
X97300213Y-85036805D01*
X97209994Y-85213867D01*
X97209993Y-85213870D01*
X97148587Y-85402862D01*
X97117500Y-85599139D01*
X89825201Y-85599139D01*
X89866112Y-85558228D01*
X89971168Y-85413632D01*
X90052310Y-85254381D01*
X90065473Y-85213870D01*
X90107540Y-85084401D01*
X90107540Y-85084400D01*
X90107541Y-85084397D01*
X90135501Y-84907866D01*
X90135501Y-84729134D01*
X90107541Y-84552603D01*
X90107540Y-84552599D01*
X90107540Y-84552598D01*
X90052311Y-84382621D01*
X90052309Y-84382618D01*
X89971300Y-84223627D01*
X89971168Y-84223368D01*
X89866112Y-84078772D01*
X89739729Y-83952389D01*
X89595133Y-83847333D01*
X89435882Y-83766191D01*
X89435879Y-83766189D01*
X89265900Y-83710960D01*
X89148210Y-83692320D01*
X89089367Y-83683000D01*
X88910635Y-83683000D01*
X88851791Y-83692320D01*
X88734102Y-83710960D01*
X88734099Y-83710960D01*
X88564122Y-83766189D01*
X88564119Y-83766191D01*
X88404868Y-83847333D01*
X88260271Y-83952390D01*
X88133892Y-84078769D01*
X88133885Y-84078778D01*
X88074703Y-84160234D01*
X88019373Y-84202900D01*
X87964658Y-84210966D01*
X87961347Y-84210705D01*
X87381000Y-84791052D01*
X87381000Y-84768340D01*
X87355036Y-84671439D01*
X87304876Y-84584560D01*
X87233940Y-84513624D01*
X87147061Y-84463464D01*
X87050160Y-84437500D01*
X87027447Y-84437500D01*
X87607794Y-83857152D01*
X87607793Y-83857151D01*
X87594869Y-83847760D01*
X87435693Y-83766655D01*
X87265780Y-83711446D01*
X87089331Y-83683500D01*
X86910669Y-83683500D01*
X86734219Y-83711446D01*
X86564306Y-83766655D01*
X86405127Y-83847762D01*
X86392205Y-83857151D01*
X86392204Y-83857151D01*
X86972554Y-84437500D01*
X86949840Y-84437500D01*
X86852939Y-84463464D01*
X86766060Y-84513624D01*
X86695124Y-84584560D01*
X86644964Y-84671439D01*
X86619000Y-84768340D01*
X86619000Y-84791053D01*
X86038651Y-84210704D01*
X86038651Y-84210705D01*
X86029262Y-84223627D01*
X85948155Y-84382806D01*
X85892946Y-84552719D01*
X85865000Y-84729168D01*
X84000000Y-84729168D01*
X84000000Y-80124500D01*
X84019685Y-80057461D01*
X84072489Y-80011706D01*
X84124000Y-80000500D01*
X127876000Y-80000500D01*
X127943039Y-80020185D01*
G37*
%TD.AperFunction*%
%TD*%
M02*
