%TF.GenerationSoftware,KiCad,Pcbnew,9.0.0*%
%TF.CreationDate,2025-09-07T15:38:32-04:00*%
%TF.ProjectId,OlfactoryDisplay,4f6c6661-6374-46f7-9279-446973706c61,rev?*%
%TF.SameCoordinates,Original*%
%TF.FileFunction,Copper,L1,Top*%
%TF.FilePolarity,Positive*%
%FSLAX46Y46*%
G04 Gerber Fmt 4.6, Leading zero omitted, Abs format (unit mm)*
G04 Created by KiCad (PCBNEW 9.0.0) date 2025-09-07 15:38:32*
%MOMM*%
%LPD*%
G01*
G04 APERTURE LIST*
G04 Aperture macros list*
%AMRoundRect*
0 Rectangle with rounded corners*
0 $1 Rounding radius*
0 $2 $3 $4 $5 $6 $7 $8 $9 X,Y pos of 4 corners*
0 Add a 4 corners polygon primitive as box body*
4,1,4,$2,$3,$4,$5,$6,$7,$8,$9,$2,$3,0*
0 Add four circle primitives for the rounded corners*
1,1,$1+$1,$2,$3*
1,1,$1+$1,$4,$5*
1,1,$1+$1,$6,$7*
1,1,$1+$1,$8,$9*
0 Add four rect primitives between the rounded corners*
20,1,$1+$1,$2,$3,$4,$5,0*
20,1,$1+$1,$4,$5,$6,$7,0*
20,1,$1+$1,$6,$7,$8,$9,0*
20,1,$1+$1,$8,$9,$2,$3,0*%
G04 Aperture macros list end*
%TA.AperFunction,ComponentPad*%
%ADD10C,1.270000*%
%TD*%
%TA.AperFunction,SMDPad,CuDef*%
%ADD11R,0.457200X1.117600*%
%TD*%
%TA.AperFunction,SMDPad,CuDef*%
%ADD12R,1.117600X0.457200*%
%TD*%
%TA.AperFunction,SMDPad,CuDef*%
%ADD13RoundRect,0.152400X1.063600X0.609600X-1.063600X0.609600X-1.063600X-0.609600X1.063600X-0.609600X0*%
%TD*%
%TA.AperFunction,ComponentPad*%
%ADD14C,1.524000*%
%TD*%
%TA.AperFunction,SMDPad,CuDef*%
%ADD15RoundRect,0.152400X-1.063600X-0.609600X1.063600X-0.609600X1.063600X0.609600X-1.063600X0.609600X0*%
%TD*%
%TA.AperFunction,ComponentPad*%
%ADD16R,1.288000X1.288000*%
%TD*%
%TA.AperFunction,ComponentPad*%
%ADD17C,1.288000*%
%TD*%
%TA.AperFunction,Conductor*%
%ADD18C,0.200000*%
%TD*%
G04 APERTURE END LIST*
D10*
%TO.P,J3,1,1*%
%TO.N,Atomizer 3 Out*%
X84850002Y-68901700D03*
%TO.P,J3,2,2*%
%TO.N,GND*%
X82850001Y-68901700D03*
%TD*%
D11*
%TO.P,U2,1,G*%
%TO.N,Net-(U2-G)*%
X115200002Y-67000000D03*
%TO.P,U2,2,D*%
%TO.N,5V Fan Out*%
X116500000Y-67000000D03*
%TO.P,U2,3,S*%
%TO.N,Battery 2 In*%
X115850001Y-65196600D03*
%TD*%
D10*
%TO.P,J2,1,1*%
%TO.N,Atomizer 2 Out*%
X84850001Y-62401700D03*
%TO.P,J2,2,2*%
%TO.N,GND*%
X82850000Y-62401700D03*
%TD*%
D12*
%TO.P,U1,1,G*%
%TO.N,Net-(U1-G)*%
X115500000Y-69500000D03*
%TO.P,U1,2,D*%
%TO.N,12V Fan Out*%
X115500000Y-70799998D03*
%TO.P,U1,3,S*%
%TO.N,Converter Out*%
X117303400Y-70149999D03*
%TD*%
D13*
%TO.P,U7,1,PA02_A0_D0*%
%TO.N,unconnected-(U7-PA02_A0_D0-Pad1)*%
X95545000Y-59880000D03*
D14*
X96380000Y-59880000D03*
D13*
%TO.P,U7,2,PA4_A1_D1*%
%TO.N,Net-(U3-G)*%
X95545000Y-62420000D03*
D14*
X96380000Y-62420000D03*
D13*
%TO.P,U7,3,PA10_A2_D2*%
%TO.N,Net-(U4-G)*%
X95545000Y-64960000D03*
D14*
X96380000Y-64960000D03*
D13*
%TO.P,U7,4,PA11_A3_D3*%
%TO.N,Net-(U5-G)*%
X95545000Y-67500000D03*
D14*
X96380000Y-67500000D03*
D13*
%TO.P,U7,5,PA8_A4_D4_SDA*%
%TO.N,Net-(U6-G)*%
X95545000Y-70040000D03*
D14*
X96380000Y-70040000D03*
D13*
%TO.P,U7,6,PA9_A5_D5_SCL*%
%TO.N,unconnected-(U7-PA9_A5_D5_SCL-Pad6)*%
X95545000Y-72580000D03*
D14*
X96380000Y-72580000D03*
D13*
%TO.P,U7,7,PB08_A6_D6_TX*%
%TO.N,unconnected-(U7-PB08_A6_D6_TX-Pad7)*%
X95545000Y-75120000D03*
D14*
X96380000Y-75120000D03*
%TO.P,U7,8,PB09_A7_D7_RX*%
%TO.N,unconnected-(U7-PB09_A7_D7_RX-Pad8)*%
X111620000Y-75120000D03*
D15*
X112455000Y-75120000D03*
D14*
%TO.P,U7,9,PA7_A8_D8_SCK*%
%TO.N,unconnected-(U7-PA7_A8_D8_SCK-Pad9)*%
X111620000Y-72580000D03*
D15*
X112455000Y-72580000D03*
D14*
%TO.P,U7,10,PA5_A9_D9_MISO*%
%TO.N,Net-(U1-G)*%
X111620000Y-70040000D03*
D15*
X112455000Y-70040000D03*
D14*
%TO.P,U7,11,PA6_A10_D10_MOSI*%
%TO.N,Net-(U2-G)*%
X111620000Y-67500000D03*
D15*
X112455000Y-67500000D03*
D14*
%TO.P,U7,12,3V3*%
%TO.N,unconnected-(U7-3V3-Pad12)*%
X111620000Y-64960000D03*
D15*
X112455000Y-64960000D03*
D14*
%TO.P,U7,13,GND*%
%TO.N,GND*%
X111620000Y-62420000D03*
D15*
X112455000Y-62420000D03*
D14*
%TO.P,U7,14,5V*%
%TO.N,Battery 2 In*%
X111620000Y-59880000D03*
D15*
X112455000Y-59880000D03*
%TD*%
D10*
%TO.P,J9,1,1*%
%TO.N,5V Fan Out*%
X119000000Y-60500000D03*
%TO.P,J9,2,2*%
%TO.N,GND*%
X116999999Y-60500000D03*
%TD*%
D16*
%TO.P,PS1,1,+VIN*%
%TO.N,Battery 2 In*%
X103760000Y-80500000D03*
D17*
%TO.P,PS1,2,-VIN*%
%TO.N,GND*%
X106300000Y-80500000D03*
%TO.P,PS1,5,-VOUT*%
X113920000Y-80500000D03*
%TO.P,PS1,7,+VOUT*%
%TO.N,Converter Out*%
X119000000Y-80500000D03*
%TD*%
D10*
%TO.P,J6,1,1*%
%TO.N,Battery 2 In*%
X119000000Y-54500000D03*
%TO.P,J6,2,2*%
%TO.N,GND*%
X116999999Y-54500000D03*
%TD*%
%TO.P,J4,1,1*%
%TO.N,Atomizer 4 Out*%
X84850001Y-75401700D03*
%TO.P,J4,2,2*%
%TO.N,GND*%
X82850000Y-75401700D03*
%TD*%
D11*
%TO.P,U3,1,G*%
%TO.N,Net-(U3-G)*%
X91299998Y-57500000D03*
%TO.P,U3,2,D*%
%TO.N,Atomizer 1 Out*%
X90000000Y-57500000D03*
%TO.P,U3,3,S*%
%TO.N,Battery 1 In*%
X90649999Y-59303400D03*
%TD*%
%TO.P,U5,1,G*%
%TO.N,Net-(U5-G)*%
X91299998Y-67500000D03*
%TO.P,U5,2,D*%
%TO.N,Atomizer 3 Out*%
X90000000Y-67500000D03*
%TO.P,U5,3,S*%
%TO.N,Battery 1 In*%
X90649999Y-69303400D03*
%TD*%
%TO.P,U4,1,G*%
%TO.N,Net-(U4-G)*%
X91299998Y-61901700D03*
%TO.P,U4,2,D*%
%TO.N,Atomizer 2 Out*%
X90000000Y-61901700D03*
%TO.P,U4,3,S*%
%TO.N,Battery 1 In*%
X90649999Y-63705100D03*
%TD*%
D10*
%TO.P,J1,1,1*%
%TO.N,Atomizer 1 Out*%
X84850001Y-55901700D03*
%TO.P,J1,2,2*%
%TO.N,GND*%
X82850000Y-55901700D03*
%TD*%
%TO.P,J7,1,1*%
%TO.N,Battery 1 In*%
X95999999Y-83000000D03*
%TO.P,J7,2,2*%
%TO.N,GND*%
X98000000Y-83000000D03*
%TD*%
%TO.P,J5,1,1*%
%TO.N,12V Fan Out*%
X119000001Y-74499999D03*
%TO.P,J5,2,2*%
%TO.N,GND*%
X117000000Y-74499999D03*
%TD*%
D11*
%TO.P,U6,1,G*%
%TO.N,Net-(U6-G)*%
X91299998Y-72500000D03*
%TO.P,U6,2,D*%
%TO.N,Atomizer 4 Out*%
X90000000Y-72500000D03*
%TO.P,U6,3,S*%
%TO.N,Battery 1 In*%
X90649999Y-74303400D03*
%TD*%
D18*
%TO.N,5V Fan Out*%
X116500000Y-67000000D02*
X116500000Y-63000000D01*
X116500000Y-63000000D02*
X119000000Y-60500000D01*
%TO.N,Battery 2 In*%
X113620000Y-59880000D02*
X111620000Y-59880000D01*
X123000000Y-81000000D02*
X123000000Y-58500000D01*
X105760000Y-82500000D02*
X121500000Y-82500000D01*
X115850001Y-57649999D02*
X119000000Y-54500000D01*
X115850001Y-65196600D02*
X115850001Y-57649999D01*
X119000000Y-54500000D02*
X113620000Y-59880000D01*
X121500000Y-82500000D02*
X123000000Y-81000000D01*
X103760000Y-80500000D02*
X105760000Y-82500000D01*
X123000000Y-58500000D02*
X119000000Y-54500000D01*
%TO.N,Atomizer 1 Out*%
X86448301Y-57500000D02*
X90000000Y-57500000D01*
X84850001Y-55901700D02*
X86448301Y-57500000D01*
%TO.N,Net-(U1-G)*%
X114460000Y-70040000D02*
X112455000Y-70040000D01*
X115500000Y-69500000D02*
X115000000Y-69500000D01*
X115000000Y-69500000D02*
X114460000Y-70040000D01*
%TO.N,12V Fan Out*%
X119000001Y-74499999D02*
X115500000Y-70999998D01*
X115500000Y-70999998D02*
X115500000Y-70799998D01*
%TO.N,Atomizer 2 Out*%
X84850001Y-62401700D02*
X89500000Y-62401700D01*
X89500000Y-62401700D02*
X90000000Y-61901700D01*
%TO.N,Atomizer 3 Out*%
X84850002Y-68901700D02*
X86251702Y-67500000D01*
X86251702Y-67500000D02*
X90000000Y-67500000D01*
%TO.N,Net-(U2-G)*%
X112955000Y-67000000D02*
X112455000Y-67500000D01*
X115200002Y-67000000D02*
X112955000Y-67000000D01*
%TO.N,Net-(U3-G)*%
X91299998Y-58174998D02*
X95545000Y-62420000D01*
X91299998Y-57500000D02*
X91299998Y-58174998D01*
%TO.N,Atomizer 4 Out*%
X84850001Y-75401700D02*
X87751701Y-72500000D01*
X87751701Y-72500000D02*
X90000000Y-72500000D01*
%TO.N,Net-(U4-G)*%
X92486700Y-61901700D02*
X95545000Y-64960000D01*
X91299998Y-61901700D02*
X92486700Y-61901700D01*
%TO.N,Net-(U5-G)*%
X91299998Y-67500000D02*
X95545000Y-67500000D01*
%TO.N,Net-(U6-G)*%
X93085000Y-72500000D02*
X95545000Y-70040000D01*
X91299998Y-72500000D02*
X93085000Y-72500000D01*
%TO.N,Battery 1 In*%
X90649999Y-74303400D02*
X90649999Y-77650000D01*
X90649999Y-59303400D02*
X90649999Y-63705100D01*
X90649999Y-69303400D02*
X90649999Y-74303400D01*
X90649999Y-63705100D02*
X90649999Y-69303400D01*
X90649999Y-77650000D02*
X95999999Y-83000000D01*
%TO.N,Converter Out*%
X120500000Y-79000000D02*
X120500000Y-72500000D01*
X119000000Y-80500000D02*
X120500000Y-79000000D01*
X120500000Y-72500000D02*
X118149999Y-70149999D01*
X118149999Y-70149999D02*
X117303400Y-70149999D01*
%TD*%
M02*
